<?xml version="1.0" encoding="UTF-8"?>
<svg id="Layer_1" data-name="Layer 1" xmlns="http://www.w3.org/2000/svg" viewBox="0 0 50 50">
  <defs>
    <style>
      .cls-1 {
        fill: #fff;
      }
    </style>
  </defs>
  <g id="Layer_1-2" data-name="Layer 1-2">
    <g>
      <path class="cls-1" d="M41.54,18.47l-10.33-3.85c-.11-.04-.23-.04-.36,0h0l-4.22,1.58c-1.04-2.23-3.31-3.77-5.93-3.77s-4.89,1.55-5.93,3.77l-4.19-1.6c-.16-.05-.34-.04-.47.05-.14.09-.22.25-.22.43v17.56c0,.22.13.41.34.49l10.33,3.85s.13.04.18.04.13,0,.18-.04h0l10.15-3.79,10.15,3.79s.13.04.18.04c.11,0,.22-.04.29-.09.14-.09.22-.25.22-.43v-17.54c0-.22-.13-.41-.34-.49h-.04ZM20.71,13.44c3.04,0,5.5,2.46,5.5,5.5s-2.46,5.5-5.5,5.5-5.5-2.46-5.5-5.5,2.46-5.5,5.5-5.5ZM10.9,15.85l3.52,1.31c-.16.58-.25,1.17-.25,1.8,0,3.43,2.66,6.25,6.02,6.52v4.13l-1.33-.56c-.27-.11-.56,0-.68.27-.11.27,0,.56.27.68l1.74.72v5.05l-9.29-3.47s0-16.46,0-16.46ZM21.23,25.46c3.36-.27,6.02-3.09,6.02-6.52,0-.63-.09-1.22-.25-1.8l3.52-1.31v16.44l-9.29,3.47v-10.3.02ZM40.85,35.76l-9.29-3.47v-5.1l1.29.43s.11.02.16.02c.22,0,.41-.14.49-.36.09-.27-.05-.56-.32-.65l-1.62-.54v-10.24l9.29,3.47s0,16.44,0,16.44Z"/>
      <path class="cls-1" d="M16.5,18.85l3.43.93.84,3.34c.05.22.25.38.49.4h.02c.22,0,.41-.14.49-.34l2.37-6.92c.07-.18,0-.4-.13-.52-.14-.14-.34-.2-.52-.13l-7.03,2.28c-.22.07-.36.27-.36.5s.16.43.38.49l.02-.04ZM22.85,16.89l-1.47,4.31-.49-1.94c-.05-.18-.18-.32-.36-.38l-2.07-.56,4.4-1.42-.02-.02Z"/>
      <path class="cls-1" d="M16.85,28.2l-1.1-.45c-.27-.11-.56,0-.68.27-.11.27,0,.56.27.68l1.1.45s.13.04.2.04c.2,0,.4-.13.49-.32.11-.27,0-.56-.27-.68v.02Z"/>
      <path class="cls-1" d="M24.59,28.36l-2.05.77c-.27.11-.4.4-.31.66.07.22.27.34.49.34.05,0,.13,0,.18-.04l2.05-.77c.27-.11.4-.4.31-.66-.11-.27-.4-.4-.66-.31Z"/>
      <path class="cls-1" d="M29.37,27.12c-.11-.27-.4-.4-.66-.31l-2.05.77c-.27.11-.4.4-.31.66.07.22.27.34.49.34.05,0,.13,0,.18-.04l2.05-.77c.27-.11.4-.4.31-.66Z"/>
      <path class="cls-1" d="M34.92,28.32l1.11.38s.11.02.16.02c.22,0,.41-.14.49-.36.09-.27-.05-.56-.32-.65l-1.11-.38c-.27-.09-.56.05-.65.32-.09.27.05.56.32.65v.02Z"/>
    </g>
  </g>
</svg>