<?xml version="1.0" encoding="UTF-8"?>
<svg id="Layer_1" data-name="Layer 1" xmlns="http://www.w3.org/2000/svg" viewBox="0 0 50 50">
  <defs>
    <style>
      .cls-1 {
        fill: #fff;
      }
    </style>
  </defs>
  <g id="Layer_1-2" data-name="Layer 1-2">
    <g>
      <path class="cls-1" d="M43.31,38.21h-4v-18.99h1.06c.34,0,.62-.28.62-.62v-4.42c0-.13-.04-.26-.11-.36h0l-2.21-3.04c-.11-.15-.3-.26-.49-.26H11.81c-.19,0-.38.09-.49.26l-2.21,3.06h0c-.06.11-.11.21-.11.36v4.42c0,.34.28.62.62.62h1.06v19.01h-4.02c-.34,0-.62.28-.62.62s.28.62.62.62h36.67c.34,0,.62-.28.62-.62s-.28-.62-.62-.62l-.02-.04ZM12.11,11.73h25.76l1.32,1.83H10.79s1.32-1.83,1.32-1.83ZM10.2,14.79h29.56v3.19H10.2v-3.19ZM11.88,19.21h26.22v19.01H11.88v-19.01Z"/>
      <path class="cls-1" d="M14.32,21.68c-.34,0-.62.28-.62.62v12.93c0,.34.28.62.62.62s.62-.28.62-.62v-12.93c0-.34-.28-.62-.62-.62Z"/>
      <path class="cls-1" d="M16.3,21.68c-.34,0-.62.28-.62.62v12.93c0,.34.28.62.62.62s.62-.28.62-.62v-12.93c0-.34-.28-.62-.62-.62Z"/>
      <path class="cls-1" d="M33.7,21.68c-.34,0-.62.28-.62.62v12.93c0,.34.28.62.62.62s.62-.28.62-.62v-12.93c0-.34-.28-.62-.62-.62Z"/>
      <path class="cls-1" d="M35.68,21.68c-.34,0-.62.28-.62.62v12.93c0,.34.28.62.62.62s.62-.28.62-.62v-12.93c0-.34-.28-.62-.62-.62Z"/>
      <path class="cls-1" d="M19.87,21.68c-.34,0-.62.28-.62.62v12.93c0,.34.28.62.62.62s.62-.28.62-.62v-12.93c0-.34-.28-.62-.62-.62Z"/>
      <path class="cls-1" d="M28.32,21.68c-.34,0-.62.28-.62.62v12.93c0,.34.28.62.62.62s.62-.28.62-.62v-12.93c0-.34-.28-.62-.62-.62Z"/>
      <path class="cls-1" d="M31.89,26.34c-.34,0-.62.28-.62.62v8.27c0,.34.28.62.62.62s.62-.28.62-.62v-8.27c0-.34-.28-.62-.62-.62Z"/>
      <path class="cls-1" d="M31.89,21.68c-.34,0-.62.28-.62.62v2.38c0,.34.28.62.62.62s.62-.28.62-.62v-2.38c0-.34-.28-.62-.62-.62Z"/>
      <path class="cls-1" d="M22.66,21.68c-.34,0-.62.28-.62.62v12.93c0,.34.28.62.62.62s.62-.28.62-.62v-12.93c0-.34-.28-.62-.62-.62Z"/>
      <path class="cls-1" d="M24.32,29.4c-.34,0-.62.28-.62.62v5.21c0,.34.28.62.62.62s.62-.28.62-.62v-5.21c0-.34-.28-.62-.62-.62Z"/>
      <path class="cls-1" d="M24.32,21.68c-.34,0-.62.28-.62.62v5.13c0,.34.28.62.62.62s.62-.28.62-.62v-5.13c0-.34-.28-.62-.62-.62Z"/>
      <path class="cls-1" d="M25.98,21.68c-.34,0-.62.28-.62.62v12.93c0,.34.28.62.62.62s.62-.28.62-.62v-12.93c0-.34-.28-.62-.62-.62Z"/>
    </g>
  </g>
</svg>