<?xml version="1.0" encoding="UTF-8"?>
<svg id="Layer_1" data-name="Layer 1" xmlns="http://www.w3.org/2000/svg" viewBox="0 0 50 50">
  <defs>
    <style>
      .cls-1 {
        fill: #fff;
      }
    </style>
  </defs>
  <g id="Layer_1-2" data-name="Layer 1-2">
    <g>
      <path class="cls-1" d="M41.45,13.16c0-.6-.23-1.16-.66-1.58s-.98-.66-1.58-.66-1.16.23-1.58.66l-4.76,4.76h-14.59c-.28,0-.52.23-.52.52v6.95h-7.45c-.28,0-.52.23-.52.52v10.77c0,.28.23.52.52.52h1.24v1.94c0,.21.12.39.32.48.07.02.12.04.2.04.12,0,.27-.05.36-.14l2.29-2.29h11.73c.28,0,.52-.23.52-.52v-3.47h6.92l3.09,3.09c.11.09.23.14.36.14.07,0,.12,0,.2-.04.2-.07.32-.27.32-.48v-2.72h1.81c.28,0,.52-.23.52-.52v-14.27c0-.28-.23-.52-.52-.52h-.44l1.6-1.62c.43-.43.66-.98.66-1.58l-.02.02ZM25.93,34.58h-11.43c-.14,0-.27.05-.36.14l-1.56,1.56v-1.21c0-.28-.23-.52-.52-.52h-1.24v-9.74h6.93v6.28c0,.28.23.52.52.52h7.66v2.97ZM39.12,17.35v13.23h-1.81c-.28,0-.52.23-.52.52v2.01l-2.36-2.36c-.09-.09-.23-.14-.36-.14h-15.31v-13.24h13.08l-.44.44s-.11.14-.14.23l-.71,2.84h-9.37c-.28,0-.52.23-.52.52s.23.52.52.52h9.87l3.24-.8c.09-.02.18-.07.23-.14l3.61-3.61h1ZM40.08,14.01l-2.49,2.49h0l-3.66,3.66-2.28.57.57-2.28,1.23-1.23h0l4.92-4.92c.23-.23.53-.36.85-.36s.62.12.85.36.36.53.36.85-.12.62-.36.85Z"/>
      <path class="cls-1" d="M20.69,24.32c0,.28.23.52.52.52h15.5c.28,0,.52-.23.52-.52s-.23-.52-.52-.52h-15.5c-.28,0-.52.23-.52.52Z"/>
      <path class="cls-1" d="M36.7,26.72h-15.5c-.28,0-.52.23-.52.52s.23.52.52.52h15.5c.28,0,.52-.23.52-.52s-.23-.52-.52-.52Z"/>
    </g>
  </g>
</svg>