<?xml version="1.0" encoding="UTF-8"?>
<svg id="Layer_1" data-name="Layer 1" xmlns="http://www.w3.org/2000/svg" viewBox="0 0 50 50">
  <defs>
    <style>
      .cls-1 {
        fill: #fff;
      }
    </style>
  </defs>
  <g id="Layer_1-2" data-name="Layer 1-2">
    <g>
      <path class="cls-1" d="M46.39,20.59h-3.7v-9.17c0-.4-.32-.72-.72-.72h-21.59c-.4,0-.72.32-.72.72v13.24H3.58c-.27,0-.55.17-.65.42-.12.27-.05.57.12.77l8.32,8.82H3.58c-.4,0-.72.32-.72.72s.32.72.72.72h42.83c.4,0,.72-.32.72-.72v-14.09c0-.4-.32-.72-.72-.72h-.02ZM38.91,24.64h-17.81v-.97h18.51l-.67.97h-.02ZM25.07,14.53v7.7h-1.27v-7.7h1.27ZM27.76,14.53v7.7h-1.27v-7.7h1.27ZM30.47,14.53v7.7h-1.27v-7.7h1.27ZM33.17,14.53v7.7h-1.27v-7.7h1.27ZM35.88,14.53v7.7h-1.27v-7.7h1.27ZM38.56,14.53v7.7h-1.27v-7.7h1.27ZM41.27,14.53v6.73l-.7.97h-.6v-7.7h1.29ZM22.37,22.25h-1.27v-7.73h1.27v7.73ZM21.1,12.12h20.2v.97h-20.2v-.97ZM13.32,34.68l-8.1-8.57h34.04c.22,0,.45-.12.6-.3l1.71-2.43h0l.94-1.34h3.2v12.67H13.32v-.02Z"/>
      <path class="cls-1" d="M16.23,27.75h-2.31c-.4,0-.72.32-.72.72s.32.72.72.72h2.31c.4,0,.72-.32.72-.72s-.32-.72-.72-.72Z"/>
      <path class="cls-1" d="M21.15,27.75h-2.31c-.4,0-.72.32-.72.72s.32.72.72.72h2.31c.4,0,.72-.32.72-.72s-.32-.72-.72-.72Z"/>
      <path class="cls-1" d="M26.07,27.75h-2.31c-.4,0-.72.32-.72.72s.32.72.72.72h2.31c.4,0,.72-.32.72-.72s-.32-.72-.72-.72Z"/>
      <path class="cls-1" d="M31.01,27.75h-2.31c-.4,0-.72.32-.72.72s.32.72.72.72h2.31c.4,0,.72-.32.72-.72s-.32-.72-.72-.72Z"/>
      <path class="cls-1" d="M35.93,27.75h-2.31c-.4,0-.72.32-.72.72s.32.72.72.72h2.31c.4,0,.72-.32.72-.72s-.32-.72-.72-.72Z"/>
      <path class="cls-1" d="M40.85,27.75h-2.31c-.4,0-.72.32-.72.72s.32.72.72.72h2.31c.4,0,.72-.32.72-.72s-.32-.72-.72-.72Z"/>
      <path class="cls-1" d="M46.39,37.86h-28.45c-.4,0-.72.32-.72.72s.32.72.72.72h28.45c.4,0,.72-.32.72-.72s-.32-.72-.72-.72Z"/>
      <path class="cls-1" d="M13.92,37.86H3.58c-.4,0-.72.32-.72.72s.32.72.72.72h10.34c.4,0,.72-.32.72-.72s-.32-.72-.72-.72Z"/>
    </g>
  </g>
</svg>