<svg xmlns="http://www.w3.org/2000/svg" width="70" height="70" viewBox="0 0 70 70">
  <g id="port" transform="translate(0 -0.167)">
    <rect id="Rectangle_3" data-name="Rectangle 3" width="70" height="70" transform="translate(0 0.167)" fill="#fff" opacity="0"/>
    <g id="Group_9" data-name="Group 9" transform="translate(12.096 5.975)">
      <path id="Path_111" data-name="Path 111" d="M48.065,36.958A3.033,3.033,0,0,0,42.9,34.531l-3.761,3.761a2.427,2.427,0,0,0,1.674,4.149.583.583,0,0,1,.51.291.559.559,0,0,1,0,.582,18.394,18.394,0,0,1-12.351,9.706,1.286,1.286,0,0,1-1.019-.243,1.237,1.237,0,0,1-.461-.946V28.853A1.213,1.213,0,0,1,28.7,27.64h7.28a2.427,2.427,0,1,0,0-4.853H28.7a1.213,1.213,0,0,1-1.213-1.213v-4.1a1.189,1.189,0,0,1,.752-1.116,8.493,8.493,0,1,0-6.358,0,1.189,1.189,0,0,1,.752,1.116v4.1a1.213,1.213,0,0,1-1.213,1.213h-7.28a2.427,2.427,0,0,0,0,4.853h7.28a1.213,1.213,0,0,1,1.213,1.213V51.784a1.237,1.237,0,0,1-.461.946,1.286,1.286,0,0,1-1.019.243A18.394,18.394,0,0,1,8.8,43.267a.558.558,0,0,1,0-.582.582.582,0,0,1,.51-.291,2.427,2.427,0,0,0,1.674-4.149L7.274,34.58a3.046,3.046,0,0,0-5.169,2.4,23.053,23.053,0,0,0,45.96,0ZM21.445,8.518a3.64,3.64,0,1,1,3.64,3.64A3.64,3.64,0,0,1,21.445,8.518Z" transform="translate(-2.097 0.013)" fill="#fff"/>
    </g>
  </g>
</svg>
