<svg id="_1" data-name="1" xmlns="http://www.w3.org/2000/svg" width="193.319" height="61.609" viewBox="0 0 193.319 61.609">
  <path id="Path_1" data-name="Path 1" d="M0,72.57V77.9H4.636V72.57Zm0,8.358V103.1H4.636V80.928Z" transform="translate(0 -65.263)" fill="#fff"/>
  <path id="Path_2" data-name="Path 2" d="M90.312,77.51V72.57H77.4v4.3h8.123V103.1h4.8V77.51ZM92.2,72.57v4.3h6.12v-4.3Z" transform="translate(-69.608 -65.263)" fill="#fff"/>
  <path id="Path_3" data-name="Path 3" d="M302.421,152.747a7.659,7.659,0,0,0-3.94.965.22.22,0,0,0-.059.038v4.362a5.094,5.094,0,0,1,3.422-1.143h1.927v-4.222Zm-5.71,10.2.022-9.911H292.08v22.173h4.636V162.943Z" transform="translate(-262.671 -137.367)" fill="#fff"/>
  <path id="Path_4" data-name="Path 4" d="M449.574,155.58v13.076a5.772,5.772,0,0,1-.637,2.782,4.567,4.567,0,0,1-1.743,1.844,4.929,4.929,0,0,1-2.585.658,5,5,0,0,1-2.542-.636,4.377,4.377,0,0,1-1.722-1.779,5.562,5.562,0,0,1-.615-2.664V155.58h-4.636v13.691a10.116,10.116,0,0,0,1.047,4.691,7.669,7.669,0,0,0,2.931,3.154,8.408,8.408,0,0,0,4.388,1.127,7.914,7.914,0,0,0,4.226-1.105,6.043,6.043,0,0,0,2.094-2.13v2.745h4.388V155.58Z" transform="translate(-391.285 -139.915)" fill="#fff"/>
  <path id="Path_5" data-name="Path 5" d="M677.394,156.033a5.94,5.94,0,0,1,2.17-.814v-4.357a11.2,11.2,0,0,0-4.69,1.445,10.772,10.772,0,0,0-4.059,4.114,12.54,12.54,0,0,0,.017,11.847,11.3,11.3,0,0,0,4.064,4.157,10.819,10.819,0,0,0,4.669,1.483v-4.357a5.881,5.881,0,0,1-2.17-.836,6.591,6.591,0,0,1-2.359-2.6,8.625,8.625,0,0,1,0-7.5A6.46,6.46,0,0,1,677.394,156.033Zm9.127,9.776a6.287,6.287,0,0,1-2.234,2.8,5.778,5.778,0,0,1-3.012,1.03v4.308a10.916,10.916,0,0,0,3.773-.809,10.734,10.734,0,0,0,3.422-2.232,8.574,8.574,0,0,0,2.116-3.176Zm1.91-12.009a10.959,10.959,0,0,0-7.156-2.982v4.308a6.078,6.078,0,0,1,5.246,3.8l4.064-1.887A8.634,8.634,0,0,0,688.431,153.8Z" transform="translate(-601.943 -135.634)" fill="#fff"/>
  <path id="Path_6" data-name="Path 6" d="M936.544,85.442l8.365-8.9h-5.78l-7.643,7.889v5.781l1.657-1.763,6.806,10.267h5.332Zm-6.725-2.065V67.7h-4.636V98.718h4.636V93.736h-.043V83.377Z" transform="translate(-832.029 -60.88)" fill="#fff"/>
  <path id="Path_7" data-name="Path 7" d="M1167.833,85.34a11.738,11.738,0,0,0-5.495-3.181l-5.332-1.677a5.716,5.716,0,0,1-2.872-1.72,4.005,4.005,0,0,1-.944-2.626,3.941,3.941,0,0,1,.637-2.232,4.062,4.062,0,0,1,1.786-1.472,6.385,6.385,0,0,1,2.661-.518V67.7a11.357,11.357,0,0,0-5.106,1.105,8.713,8.713,0,0,0-3.5,3.052,8.107,8.107,0,0,0-1.274,4.53,7.84,7.84,0,0,0,1.8,5.144,10.692,10.692,0,0,0,5.252,3.257l5.742,1.8a6.444,6.444,0,0,1,2.79,1.558,3.675,3.675,0,0,1,.945,2.664,3.627,3.627,0,0,1-.68,2.173,4.315,4.315,0,0,1-1.906,1.456,7.153,7.153,0,0,1-2.359.5v4.254a12.047,12.047,0,0,0,4.7-1.111,9.006,9.006,0,0,0,3.67-3.1,7.818,7.818,0,0,0,1.333-4.508A7.425,7.425,0,0,0,1167.833,85.34Zm-13.288,8.088a9.28,9.28,0,0,1-3.239-4.341l-4.1,1.72a11.957,11.957,0,0,0,2.542,4.346,12.327,12.327,0,0,0,4.183,2.971,12.62,12.62,0,0,0,4.344,1.046v-4.3A8.008,8.008,0,0,1,1154.545,93.428Zm12.612-22.13a11.82,11.82,0,0,0-7.178-3.5V72.08a7.334,7.334,0,0,1,2.71,1.148,7.585,7.585,0,0,1,2.806,3.726l4.021-1.758A10.186,10.186,0,0,0,1167.158,71.3Z" transform="translate(-1031.696 -60.88)" fill="#fff"/>
  <path id="Path_8" data-name="Path 8" d="M1431.586,157.441a10.585,10.585,0,0,0-2.073-3.419,9.533,9.533,0,0,0-3.325-2.356,10.288,10.288,0,0,0-3.227-.809v3.958a5.21,5.21,0,0,1,1.98.8,5.645,5.645,0,0,1,2.051,2.5,5.289,5.289,0,0,1,.415,1.9H1415.7a6.768,6.768,0,0,1,.53-1.779,5.98,5.98,0,0,1,2.212-2.626,5.846,5.846,0,0,1,2.812-.906v-3.9a10.413,10.413,0,0,0-5.111,1.488,10.967,10.967,0,0,0-3.912,4.077,11.863,11.863,0,0,0-1.458,5.942,12.168,12.168,0,0,0,1.436,5.921,10.756,10.756,0,0,0,4,4.179,10.993,10.993,0,0,0,5.046,1.515v-4.13a6.3,6.3,0,0,1-5.008-3.51,6.577,6.577,0,0,1-.659-2.583H1432.1a6.318,6.318,0,0,0,.161-1.062c.027-.383.043-.755.043-1.111A11.75,11.75,0,0,0,1431.586,157.441Zm-3.795,9.184a6.711,6.711,0,0,1-2.234,2.335,5.878,5.878,0,0,1-2.6.857v4.114a11.468,11.468,0,0,0,3.292-.69,10.042,10.042,0,0,0,3.281-1.968,8,8,0,0,0,2.03-2.8Z" transform="translate(-1268.723 -135.629)" fill="#fff"/>
  <path id="Path_9" data-name="Path 9" d="M1664.149,73.594l-2.407,7.134,3.805,11.232h-7.734l-1.452,4.3h10.665l2.337,6.843h5.171Zm-3.34,4.368.032.1,1.845-5.484h-4.89l-10.745,30.531h5.166l1.155-3.322,2.639-7.824h-.021Z" transform="translate(-1481.214 -65.268)" fill="#fff"/>
  <path id="Path_11" data-name="Path 11" d="M1394.135,10.157a9.171,9.171,0,0,0-6.378,2.6,1.256,1.256,0,0,0,0,1.789,1.3,1.3,0,0,0,1.817,0,6.456,6.456,0,0,1,2.092-1.379,6.537,6.537,0,0,1,4.939,0,6.447,6.447,0,0,1,2.092,1.379,1.387,1.387,0,0,0,1.647.2,1.273,1.273,0,0,0,.507-.568,1.247,1.247,0,0,0,.089-.751,1.262,1.262,0,0,0-.361-.667,9.1,9.1,0,0,0-2.958-1.931A9.217,9.217,0,0,0,1394.135,10.157Zm0-5.074a14.392,14.392,0,0,0-10.024,4.085,1.261,1.261,0,0,0,0,1.8,1.309,1.309,0,0,0,1.83,0,11.726,11.726,0,0,1,16.389,0,1.287,1.287,0,0,0,.42.274,1.314,1.314,0,0,0,1.41-.274,1.256,1.256,0,0,0,0-1.8A14.39,14.39,0,0,0,1394.135,5.083Zm13.67.495a19.337,19.337,0,0,0-6.271-4.128,19.608,19.608,0,0,0-14.8,0,19.354,19.354,0,0,0-6.272,4.128,1.259,1.259,0,0,0,0,1.8,1.308,1.308,0,0,0,1.829,0,16.937,16.937,0,0,1,23.683,0,1.291,1.291,0,0,0,.419.278,1.308,1.308,0,0,0,.991,0,1.281,1.281,0,0,0,.419-.278,1.254,1.254,0,0,0,0-1.8Z" transform="translate(-1241.129 0)" fill="#fff"/>
  <path id="Path_10" data-name="Path 10" d="M449.446,442.885V432.433h2.183v10.452Zm0-11.882v-2.512h2.183V431Zm10.338,12.114a5.936,5.936,0,0,1-2.859-.676,5.1,5.1,0,0,1-1.951-1.855,5.183,5.183,0,0,1-.7-2.685v-9.409h2.28V437.8a3.417,3.417,0,0,0,.406,1.681,3.027,3.027,0,0,0,1.14,1.14,3.418,3.418,0,0,0,1.681.406,3.348,3.348,0,0,0,1.681-.406,2.855,2.855,0,0,0,1.14-1.14,3.293,3.293,0,0,0,.425-1.681v-9.312h2.26V437.9a5.183,5.183,0,0,1-.7,2.685,4.925,4.925,0,0,1-1.951,1.855A5.865,5.865,0,0,1,459.784,443.117Zm13.754,0a5.936,5.936,0,0,1-2.859-.676,5.1,5.1,0,0,1-1.951-1.855,5.183,5.183,0,0,1-.7-2.685v-9.409h2.28V437.8a3.417,3.417,0,0,0,.406,1.681,3.027,3.027,0,0,0,1.14,1.14,3.418,3.418,0,0,0,1.681.406,3.348,3.348,0,0,0,1.681-.406,2.855,2.855,0,0,0,1.14-1.14,3.293,3.293,0,0,0,.425-1.681v-9.312h2.26V437.9a5.183,5.183,0,0,1-.7,2.685,4.925,4.925,0,0,1-1.951,1.855A5.865,5.865,0,0,1,473.538,443.117Zm18.445,0a7.163,7.163,0,0,1-2.84-.56,7.06,7.06,0,0,1-2.26-1.546,7.414,7.414,0,0,1-1.488-2.357,7.943,7.943,0,0,1-.541-2.975,8.146,8.146,0,0,1,.522-2.956,6.98,6.98,0,0,1,1.507-2.357,6.671,6.671,0,0,1,2.26-1.546,7.073,7.073,0,0,1,2.84-.56,6.759,6.759,0,0,1,2.724.522,6.284,6.284,0,0,1,2.048,1.372,5.067,5.067,0,0,1,1.2,1.816l-2.048.966a4.094,4.094,0,0,0-1.488-1.874,4.014,4.014,0,0,0-2.435-.734,4.737,4.737,0,0,0-2.531.676,4.652,4.652,0,0,0-1.719,1.874,6.191,6.191,0,0,0-.6,2.8,6.314,6.314,0,0,0,.6,2.821,4.654,4.654,0,0,0,1.719,1.874,4.845,4.845,0,0,0,2.531.657,4.077,4.077,0,0,0,3.922-2.589l2.048.966a5.3,5.3,0,0,1-1.2,1.816,6.285,6.285,0,0,1-2.048,1.372A6.759,6.759,0,0,1,491.983,443.117Zm12.956,0a5.487,5.487,0,0,1-2.763-.715,5.372,5.372,0,0,1-2.7-4.753,5.311,5.311,0,0,1,.734-2.8,5.248,5.248,0,0,1,1.971-1.932,5.417,5.417,0,0,1,2.763-.715,5.353,5.353,0,0,1,2.763.715,5.117,5.117,0,0,1,1.951,1.932,5.319,5.319,0,0,1,.734,2.8,5.373,5.373,0,0,1-2.7,4.772A5.5,5.5,0,0,1,504.939,443.117Zm0-2.029a3.047,3.047,0,0,0,1.642-.444,3.1,3.1,0,0,0,1.121-1.217,3.705,3.705,0,0,0,.425-1.777,3.593,3.593,0,0,0-.425-1.758,3.1,3.1,0,0,0-1.121-1.217,3.046,3.046,0,0,0-1.642-.444,3.106,3.106,0,0,0-1.642.444,3.235,3.235,0,0,0-1.14,1.217,3.725,3.725,0,0,0-.406,1.758,3.842,3.842,0,0,0,.406,1.777,3.236,3.236,0,0,0,1.14,1.217A3.107,3.107,0,0,0,504.939,441.088Zm7.58,1.8V432.433h2.087v2.26l-.271-.348a2.777,2.777,0,0,1,1.2-1.6,3.687,3.687,0,0,1,1.99-.541,3.78,3.78,0,0,1,2.222.676,3.141,3.141,0,0,1,1.314,1.758l-.618.058a3.663,3.663,0,0,1,1.41-1.874,4,4,0,0,1,2.2-.618,3.829,3.829,0,0,1,1.951.5,3.752,3.752,0,0,1,1.41,1.391,3.931,3.931,0,0,1,.522,2.029v6.762h-2.183v-6.163a2.794,2.794,0,0,0-.29-1.333,1.915,1.915,0,0,0-.773-.85,2.071,2.071,0,0,0-1.14-.309,2.165,2.165,0,0,0-1.159.309,2.023,2.023,0,0,0-.792.85,2.867,2.867,0,0,0-.29,1.333v6.163h-2.164v-6.163a2.794,2.794,0,0,0-.29-1.333,1.915,1.915,0,0,0-.773-.85,2.106,2.106,0,0,0-1.159-.309,2.165,2.165,0,0,0-1.159.309,2.023,2.023,0,0,0-.792.85,3.03,3.03,0,0,0-.271,1.333v6.163Zm17.753,3.864V432.433h2.086V434.6l-.251-.5a4.031,4.031,0,0,1,1.546-1.391,4.706,4.706,0,0,1,2.2-.5,5.089,5.089,0,0,1,4.54,2.666,5.911,5.911,0,0,1,0,5.564,5.241,5.241,0,0,1-1.855,1.971,5.074,5.074,0,0,1-2.685.715,4.9,4.9,0,0,1-2.222-.5,3.606,3.606,0,0,1-1.526-1.449l.348-.406v5.989Zm5.371-5.661a3.045,3.045,0,0,0,1.642-.444,3.1,3.1,0,0,0,1.12-1.217,3.7,3.7,0,0,0,.425-1.777,3.584,3.584,0,0,0-.425-1.758,3.1,3.1,0,0,0-1.12-1.217,3.044,3.044,0,0,0-1.642-.444,3.111,3.111,0,0,0-1.642.444,3.25,3.25,0,0,0-1.14,1.217,3.726,3.726,0,0,0-.406,1.758,3.843,3.843,0,0,0,.406,1.777,3.251,3.251,0,0,0,1.14,1.217A3.112,3.112,0,0,0,535.643,441.088Zm7.573,1.8V428.26H545.4v14.625Zm4.735,0V432.433h2.183v10.452Zm0-11.882v-2.512h2.183V431Zm7.866,12.114a4.506,4.506,0,0,1-1.874-.367,3.09,3.09,0,0,1-1.237-1.043,2.821,2.821,0,0,1-.444-1.584,2.873,2.873,0,0,1,1.546-2.666,5.735,5.735,0,0,1,1.99-.657l3.632-.6v1.719l-3.207.56a2.35,2.35,0,0,0-1.275.56,1.325,1.325,0,0,0-.406,1,1.249,1.249,0,0,0,.444.985,1.84,1.84,0,0,0,1.178.367,2.993,2.993,0,0,0,1.546-.386,2.753,2.753,0,0,0,1.043-1.024,2.916,2.916,0,0,0,.367-1.449v-2.685a1.557,1.557,0,0,0-.58-1.256,2.172,2.172,0,0,0-1.507-.5,2.58,2.58,0,0,0-1.526.464,2.688,2.688,0,0,0-.947,1.159l-1.816-.908a3.358,3.358,0,0,1,.947-1.352,4.714,4.714,0,0,1,1.526-.927,5.363,5.363,0,0,1,1.874-.328,4.9,4.9,0,0,1,2.183.464,3.491,3.491,0,0,1,1.488,1.294,3.33,3.33,0,0,1,.541,1.893v7.032h-2.086v-1.893l.444.058a3.88,3.88,0,0,1-.947,1.1,4.081,4.081,0,0,1-1.294.715A4.818,4.818,0,0,1,555.816,443.117Zm8.04-.232V432.433h2.087v2.048l-.251-.27a2.89,2.89,0,0,1,1.236-1.488,3.689,3.689,0,0,1,1.971-.522,4.09,4.09,0,0,1,2.048.5,3.617,3.617,0,0,1,1.391,1.391,4.092,4.092,0,0,1,.5,2.048v6.743h-2.164v-6.163a2.794,2.794,0,0,0-.29-1.333,1.965,1.965,0,0,0-.831-.85,2.3,2.3,0,0,0-1.2-.309,2.4,2.4,0,0,0-1.217.309,1.992,1.992,0,0,0-.811.85,2.867,2.867,0,0,0-.29,1.333v6.163Zm16.285.232a5.391,5.391,0,0,1-2.782-.715,5.507,5.507,0,0,1-1.913-1.971,5.95,5.95,0,0,1,0-5.583,5.012,5.012,0,0,1,1.913-1.932,5.39,5.39,0,0,1,2.782-.715,5.12,5.12,0,0,1,1.99.386,4.813,4.813,0,0,1,1.6,1.024,4.04,4.04,0,0,1,1.024,1.526l-1.913.889a2.746,2.746,0,0,0-1.062-1.294,2.784,2.784,0,0,0-1.642-.5,2.965,2.965,0,0,0-2.7,1.661,3.725,3.725,0,0,0-.406,1.758,3.842,3.842,0,0,0,.406,1.777,3.149,3.149,0,0,0,1.1,1.217,2.978,2.978,0,0,0,1.6.444,2.807,2.807,0,0,0,1.642-.483,3.014,3.014,0,0,0,1.063-1.333l1.913.908a4.071,4.071,0,0,1-1,1.507,5.075,5.075,0,0,1-1.6,1.043A5.17,5.17,0,0,1,580.141,443.117Zm11.659,0a5.39,5.39,0,0,1-2.782-.715,5.2,5.2,0,0,1-1.874-1.971,5.817,5.817,0,0,1-.676-2.8,5.675,5.675,0,0,1,.676-2.8A5.186,5.186,0,0,1,589,432.916a4.9,4.9,0,0,1,2.628-.715,5.2,5.2,0,0,1,2.106.406,4.461,4.461,0,0,1,1.565,1.121,4.722,4.722,0,0,1,.966,1.6,5.354,5.354,0,0,1,.348,1.932c0,.167-.006.341-.019.522a2.97,2.97,0,0,1-.077.5h-8.327v-1.739h7.09l-1.043.792a2.708,2.708,0,0,0-.135-1.681,2.492,2.492,0,0,0-.966-1.179,2.569,2.569,0,0,0-1.507-.444,2.774,2.774,0,0,0-2.589,1.681,3.922,3.922,0,0,0-.29,1.932,3.457,3.457,0,0,0,.29,1.855,3.066,3.066,0,0,0,1.121,1.236,3.145,3.145,0,0,0,1.661.444,2.89,2.89,0,0,0,1.6-.425,3.1,3.1,0,0,0,1.063-1.1l1.777.869a3.8,3.8,0,0,1-.966,1.333,4.848,4.848,0,0,1-1.546.927A5.59,5.59,0,0,1,591.8,443.117Z" transform="translate(-404.192 -385.139)" fill="#f74f4f"/>
</svg>
