<svg xmlns="http://www.w3.org/2000/svg" width="12.914" height="17.371"><g id="f_map" transform="translate(-5.626 -1.237)" fill="#f47500"><path id="Path_973258" data-name="Path 973258" d="M15.73 8.971a2.376 2.376 0 102.376 2.376 2.376 2.376 0 00-2.376-2.376zm0 3.564a1.188 1.188 0 111.188-1.188 1.188 1.188 0 01-1.188 1.188z" transform="translate(-3.648 -3.651)"/><path id="Path_973259" data-name="Path 973259" d="M16.648 3.127a6.457 6.457 0 00-9.976 8.09l4.489 6.891a1.1 1.1 0 001.843 0l4.489-6.891a6.457 6.457 0 00-.845-8.09zm-.148 7.442l-4.415 6.777-4.417-6.777a5.269 5.269 0 118.83 0z"/></g></svg>