<svg xmlns="http://www.w3.org/2000/svg" width="13.465" height="13.463"><defs><clipPath id="clip-path"><path id="Rectangle_105564" data-name="Rectangle 105564" fill="none" d="M0 0h13.465v13.463H0z"/></clipPath></defs><g id="h_icon1" transform="translate(.004 -.001)"><g id="Group_40000" data-name="Group 40000" transform="translate(-.004 .001)"><g id="Group_39999" data-name="Group 39999" clip-path="url(#clip-path)" fill="#f90"><path id="Path_973275" data-name="Path 973275" d="M6.107 11.3v1.583a1.407 1.407 0 01-1.458 1.461H1.468a1.408 1.408 0 01-1.462-1.463V9.7a1.407 1.407 0 011.458-1.46h3.181A1.407 1.407 0 016.107 9.7v1.6" transform="translate(-.005 -7.917)"/><path id="Path_973276" data-name="Path 973276" d="M3.066 188.276h1.583a1.406 1.406 0 011.451 1.453v3.2a1.405 1.405 0 01-1.452 1.452h-3.2A1.406 1.406 0 010 192.924v-3.2a1.407 1.407 0 011.452-1.452h1.613" transform="translate(0 -180.914)"/><path id="Path_973277" data-name="Path 973277" d="M183.113 188.276h1.6a1.406 1.406 0 011.452 1.452v3.2a1.405 1.405 0 01-1.452 1.452h-3.2a1.406 1.406 0 01-1.452-1.452v-3.2a1.407 1.407 0 011.452-1.452h1.6" transform="translate(-173.022 -180.914)"/><path id="Path_973278" data-name="Path 973278" d="M171.982 3.368a1.338 1.338 0 01.366-.933c.682-.693 1.364-1.387 2.064-2.061a1.366 1.366 0 011.888.01q1.032 1 2.032 2.031a1.369 1.369 0 010 1.911q-1 1.033-2.032 2.032a1.366 1.366 0 01-1.9.007c-.7-.671-1.375-1.362-2.054-2.051a1.346 1.346 0 01-.369-.946" transform="translate(-165.258)"/></g></g></g></svg>