<svg id="h_icon6" xmlns="http://www.w3.org/2000/svg" width="14.05" height="13.463"><defs><clipPath id="clip-path"><path id="Rectangle_105563" data-name="Rectangle 105563" fill="none" d="M0 0h14.05v13.463H0z"/></clipPath></defs><g id="Group_39997" data-name="Group 39997" clip-path="url(#clip-path)" fill="#f90"><path id="Path_973266" data-name="Path 973266" d="M0 12.027V1.434a.464.464 0 00.023-.064A1.629 1.629 0 011.692 0h7.245a1.63 1.63 0 011.686 1.687v10.085a1.747 1.747 0 01-.019.3 1.625 1.625 0 01-1.64 1.387H1.679a1.584 1.584 0 01-1.459-.833 3.608 3.608 0 01-.219-.6m9.306-5.3V2.157a.7.7 0 00-.749-.757H2.1a.9.9 0 00-.2.018.7.7 0 00-.547.739c0 3.032 0 6.064-.005 9.1a.766.766 0 00.811.8q3.176-.021 6.352 0a.762.762 0 00.809-.8C9.3 9.749 9.306 8.24 9.306 6.73" transform="translate(0 .001)"/><path id="Path_973267" data-name="Path 973267" d="M353.878 44.494c-.007.068-.018.135-.019.2l-.149 8.56a3.072 3.072 0 01-.02.383.7.7 0 01-.672.594.244.244 0 01-.282-.26V43.228a.238.238 0 01.248-.24.776.776 0 01.894.571z" transform="translate(-339.827 -41.413)"/><path id="Path_973268" data-name="Path 973268" d="M310.644 48.645v5.269c0 .317-.176.379-.407.317a.715.715 0 01-.534-.7q-.03-1.605-.057-3.21c-.038-2.168-.068-4.335-.118-6.5a.746.746 0 01.814-.812c.219.012.3.08.3.3v5.337" transform="translate(-298.206 -41.434)"/><path id="Path_973269" data-name="Path 973269" d="M56.582 57.589h-6.71c-.283 0-.315-.032-.315-.314v-5.747c0-.285.064-.35.343-.35h6.35c.266 0 .332.066.332.33v5.925zm-4.947-3.081a1.5 1.5 0 00.962 1.2 1.705 1.705 0 00.352.033c.068 0 .137-.008.2 0A1.432 1.432 0 0054.5 54.67a2.091 2.091 0 00.005-.259c0-.068-.005-.137 0-.2a.911.911 0 00-.355-.845.828.828 0 01-.125-.124.909.909 0 00-.8-.362 1.039 1.039 0 01-.191.008.883.883 0 00-.826.266c-.2.221-.479.38-.538.706a1.841 1.841 0 00-.03.257v.4m3.758.029c0 .041-.008.082-.007.123a.235.235 0 00.22.25.227.227 0 00.241-.212 2.014 2.014 0 00.016-.328.228.228 0 00-.225-.216.233.233 0 00-.236.2c-.008.059-.006.119-.009.178m-3.078-2.322a.242.242 0 00.282-.2.226.226 0 00-.185-.262 2.213 2.213 0 00-.327-.028.232.232 0 00-.029.463c.086.012.173.017.259.025m2.78-.237c-.17-.009-.28.061-.3.191a.223.223 0 00.166.263 1.852 1.852 0 00.368.028.221.221 0 00.215-.224.225.225 0 00-.219-.238c-.077-.009-.155-.014-.232-.02m-3.938 4.193v-.006h-.137a.231.231 0 00-.029.461 1.765 1.765 0 00.341.006.231.231 0 00-.012-.46h-.164m3.512.257a.238.238 0 00-.26.2.223.223 0 00.189.258 2.484 2.484 0 00.312.043.229.229 0 00.243-.194.222.222 0 00-.181-.263c-.1-.022-.207-.031-.3-.045m-3.929-2.986a3.055 3.055 0 00-.158-.375.2.2 0 00-.27-.069.207.207 0 00-.133.255 1.806 1.806 0 00.125.346.208.208 0 00.257.105c.111-.028.165-.106.178-.262" transform="translate(-47.744 -49.306)"/><path id="Path_973270" data-name="Path 973270" d="M153.7 239.214h1.372c.215 0 .26.044.26.254v2.278c0 .228-.076.3-.3.3h-2.722c-.21 0-.254-.045-.254-.26v-2.319c0-.217.04-.257.257-.257h1.387m0 2.455a1.053 1.053 0 10-1.058-1.051 1.055 1.055 0 001.058 1.051" transform="translate(-146.492 -230.461)"/><path id="Path_973271" data-name="Path 973271" d="M51.2 283.9h1.37c.2 0 .251.055.252.254v.7c0 .193-.055.248-.242.248h-2.741c-.217 0-.3-.081-.3-.3v-.672c0-.169.062-.23.233-.231h1.425" transform="translate(-47.727 -273.513)"/><path id="Path_973272" data-name="Path 973272" d="M51.17 240.38h-1.385c-.192 0-.245-.053-.245-.243v-.7c0-.164.059-.223.223-.223h2.839c.159 0 .216.057.218.215v.713c0 .184-.055.237-.238.237H51.17" transform="translate(-47.726 -230.461)"/><path id="Path_973273" data-name="Path 973273" d="M119.924 110.372c.139-.006.278-.014.417-.018a.447.447 0 01.383.2.759.759 0 00.16.163.469.469 0 01.2.487.824.824 0 000 .228.469.469 0 01-.215.5.635.635 0 00-.149.155.462.462 0 01-.437.2 2.008 2.008 0 00-.309 0 .467.467 0 01-.448-.206.749.749 0 00-.162-.161.47.47 0 01-.2-.49.621.621 0 000-.2.469.469 0 01.207-.51.7.7 0 00.15-.154.4.4 0 01.394-.19" transform="translate(-114.802 -106.316)"/><path id="Path_973274" data-name="Path 973274" d="M180.792 262.172a.586.586 0 11.588.582.587.587 0 01-.588-.582" transform="translate(-174.177 -252.014)"/></g></svg>