<svg xmlns="http://www.w3.org/2000/svg" width="13.461" height="13.453"><defs><clipPath id="clip-path"><path id="Rectangle_105542" data-name="Rectangle 105542" fill="none" d="M0 0h13.461v13.453H0z"/></clipPath></defs><g id="h_icon5" transform="translate(0 -1)"><g id="Group_39960" data-name="Group 39960" transform="translate(0 1)" clip-path="url(#clip-path)"><path id="Path_973236" data-name="Path 973236" d="M5.668 8.541l.614-.371 6.342-3.841a.22.22 0 00.13-.233c-.011-.132 0-.266 0-.4a.356.356 0 11.707 0v4.353c0 .531.042.5-.451.8q-3.74 2.265-7.475 4.536a.4.4 0 01-.378.038L.3 11.567a.379.379 0 01-.3-.43V5.1a.387.387 0 01.209-.36l6.8-4.114c.307-.186.615-.369.92-.558a.412.412 0 01.389-.035q2.435.93 4.871 1.856a.366.366 0 01.268.319.388.388 0 01-.235.376L7.851 5.838c-.689.417-1.377.837-2.068 1.251a.209.209 0 00-.116.21c.005.4 0 .806 0 1.241m7.083-1.567c-.062.034-.1.053-.138.076L8.871 9.318q-1.544.935-3.087 1.873c-.045.028-.109.078-.11.119-.008.377-.005.754-.005 1.152l.143-.077 4.4-2.666q1.216-.737 2.431-1.477c.047-.029.1-.089.105-.135.009-.368.005-.737.005-1.132m-7.085 3.45c.066-.038.108-.061.149-.086l3.44-2.084 3.375-2.049c.046-.028.111-.077.113-.117.009-.327.005-.654.005-1-.066.037-.113.061-.157.088L8.209 7.83q-1.216.737-2.431 1.476a.217.217 0 00-.1.136c-.009.319-.005.638-.005.983M5.6 4.557a1.679 1.679 0 01-.229 0c-.306-.047-.609-.109-.916-.148a1.631 1.631 0 00-1.123.2.348.348 0 00-.13.464.333.333 0 00.439.161 1.462 1.462 0 011-.079 6.968 6.968 0 00.83.119.732.732 0 00.763-.989 3.792 3.792 0 00-.168-.407l-.052-.116.742.147a3.668 3.668 0 001.2.078.7.7 0 00.606-1.046c-.083-.2-.192-.387-.286-.581-.033-.068-.059-.14-.091-.219a.581.581 0 01.108-.02c.313.016.626.028.939.054a.364.364 0 00.422-.295.343.343 0 00-.311-.405 5.645 5.645 0 00-.728-.075 2.5 2.5 0 00-.683.082.611.611 0 00-.434.774 3.59 3.59 0 00.23.57c.065.145.143.285.225.448a1.178 1.178 0 01-.23.026c-.3-.03-.6-.055-.891-.1-.353-.058-.7-.147-1.055-.206a.558.558 0 00-.584.195.528.528 0 00.012.6c.089.175.195.341.287.514.04.075.066.158.107.26M.716 5.588v1.451L4.96 8.654V7.332a.157.157 0 00-.126-.177q-1.656-.626-3.312-1.26l-.806-.307M.71 9.684v1.153a.156.156 0 00.125.176q1.683.638 3.365 1.287c.246.094.493.186.758.286v-1.152a.158.158 0 00-.126-.177L1.6 10.024l-.89-.34m4.25.859c0-.346-.006-.666 0-.985a.175.175 0 00-.138-.2q-1.802-.681-3.605-1.37L.71 7.8c0 .345.005.669 0 .993a.166.166 0 00.131.188c.942.355 1.881.715 2.822 1.074l1.3.493" fill="#f90"/></g></g></svg>