<svg xmlns="http://www.w3.org/2000/svg" width="12.501" height="13.463"><g id="h_icon3" transform="translate(-3.375 -2.25)"><path id="Path_973233" data-name="Path 973233" d="M17.081 6.365a1.022 1.022 0 00-2.043 0v1.022h1.022a1.022 1.022 0 001.021-1.022zm-3.366 0a1.022 1.022 0 10-1.022 1.022h1.022z" transform="translate(-4.751 -1.771)" fill="none"/><path id="Path_973234" data-name="Path 973234" d="M8.964 5.616h1.322v3.365h4.928a.661.661 0 00.661-.661V6.277a.661.661 0 00-.661-.661h-1.8a2.342 2.342 0 00-3.788-2.651 2.344 2.344 0 00-3.793 2.651h-1.8a.661.661 0 00-.661.661V8.32a.661.661 0 00.661.661h4.931zm1.322-1.022a1.022 1.022 0 111.022 1.022h-1.021zm-3.366 0a1.022 1.022 0 112.043 0v1.022h-1.02a1.022 1.022 0 01-1.022-1.022zm3.366 11.119h3.967a.661.661 0 00.661-.661V9.943h-4.627zm-5.95-.661a.661.661 0 00.664.661h3.964v-5.77H4.337z" fill="#f90"/></g></svg>