<svg id="h_icon_white2" xmlns="http://www.w3.org/2000/svg" width="48.144" height="48.149"><defs><clipPath id="clip-path"><path id="Path_2856" data-name="Path 2856" d="M17.591 25.584a8.024 8.024 0 118.039 8.009h-.014a8.025 8.025 0 01-8.025-8.009m8-12.376a12.36 12.36 0 00-12.336 12.384 12.36 12.36 0 1012.36-12.384h-.023m12.842-3.394a2.892 2.892 0 10.006 0M11.457 44.367a7.966 7.966 0 01-4.578-4.56 13.344 13.344 0 01-.835-4.462c-.119-2.538-.142-3.3-.159-9.727S5.9 18.43 6 15.891a13.352 13.352 0 01.818-4.478 7.485 7.485 0 011.8-2.771 7.448 7.448 0 012.76-1.805A13.3 13.3 0 0115.845 6c2.539-.12 3.3-.142 9.724-.159s7.189.01 9.728.122a13.289 13.289 0 014.468.818 7.975 7.975 0 014.587 4.561 13.256 13.256 0 01.834 4.466c.122 2.539.142 3.3.161 9.727s-.013 7.189-.123 9.727a13.32 13.32 0 01-.818 4.472 7.968 7.968 0 01-4.56 4.577 13.335 13.335 0 01-4.466.837c-2.539.119-3.3.142-9.727.159s-7.187-.011-9.726-.122a13.325 13.325 0 01-4.468-.82M25.565 1.5c-6.538.016-7.356.041-9.924.164A17.605 17.605 0 009.806 2.8a11.791 11.791 0 00-4.258 2.783 11.8 11.8 0 00-2.767 4.273A17.7 17.7 0 001.673 15.7c-.112 2.567-.142 3.387-.126 9.924s.041 7.364.164 9.925a17.662 17.662 0 001.133 5.838 11.779 11.779 0 002.784 4.258A11.8 11.8 0 009.9 48.411a17.687 17.687 0 005.844 1.107c2.567.113 3.387.142 9.922.126s7.362-.041 9.925-.163a17.72 17.72 0 005.84-1.133 12.3 12.3 0 007.021-7.056 17.636 17.636 0 001.107-5.843c.112-2.569.142-3.39.126-9.927s-.041-7.356-.164-9.922a17.6 17.6 0 00-1.135-5.84A11.8 11.8 0 0045.6 5.5a11.76 11.76 0 00-4.271-2.764 17.6 17.6 0 00-5.84-1.106c-2.147-.095-3.073-.13-7.143-.13h-2.781" transform="translate(-1.543 -1.5)" fill="#222"/></clipPath></defs><g id="Group_753" data-name="Group 753"><g id="Group_752" data-name="Group 752" clip-path="url(#clip-path)"><path id="Rectangle_1544" data-name="Rectangle 1544" transform="translate(-2.521 -2)" fill="#222" d="M0 0h53.802v51.463H0z"/><path id="Rectangle_1545" data-name="Rectangle 1545" transform="translate(-2.521 -2)" fill="#fff" d="M0 0h53.802v51.463H0z"/></g></g></svg>