<svg id="h_icon_white3" xmlns="http://www.w3.org/2000/svg" width="58.882" height="41.218"><defs><clipPath id="clip-path"><path id="Rectangle_101500" data-name="Rectangle 101500" fill="none" d="M0 0h58.882v41.217H0z"/></clipPath></defs><g id="Group_31000" data-name="Group 31000" clip-path="url(#clip-path)"><path id="Subtraction_1" data-name="Subtraction 1" d="M29.436 41.215c-.185 0-18.455-.013-23-1.223a7.4 7.4 0 01-5.208-5.205C.011 30.25-.004 20.709-.004 20.614s.015-9.649 1.236-14.173A7.384 7.384 0 016.44 1.233C10.981.013 29.251 0 29.436 0s18.475.013 23.006 1.233a7.387 7.387 0 015.211 5.208c1.215 4.523 1.231 14.075 1.231 14.172s-.015 9.636-1.231 14.172a7.41 7.41 0 01-5.211 5.205c-4.531 1.21-22.821 1.225-23.006 1.225zm-5.885-29.44v17.662l15.3-8.824-15.3-8.836z" fill="#fff" stroke="rgba(0,0,0,0)" stroke-miterlimit="10" stroke-width="1"/></g></svg>