<svg xmlns="http://www.w3.org/2000/svg" width="13" height="13"><defs><clipPath id="clip-path"><path id="Rectangle_105562" data-name="Rectangle 105562" transform="translate(0 .387)" fill="none" d="M0 0h13v13H0z"/></clipPath></defs><g id="h_icon4" transform="translate(-.568 -.387)"><g id="Group_39996" data-name="Group 39996" transform="translate(.568 .107)"><g id="Group_39996-2" data-name="Group 39996" transform="translate(0 -.107)" clip-path="url(#clip-path)" fill="#f90"><path id="Path_973260" data-name="Path 973260" d="M0 38.348v-.182a.52.52 0 01.364-.318c.588-.2 1.173-.408 1.76-.612l1.586-.551a2.448 2.448 0 001.233 1.758 2.372 2.372 0 002.146.131 2.472 2.472 0 001.218-3.483c.027-.012.053-.025.081-.035.749-.261 1.5-.52 2.248-.785a.478.478 0 01.442.05 4.554 4.554 0 012.049 2.864c.069.271.106.55.157.825v.571c-.02.136-.036.273-.061.408a4.855 4.855 0 01-2.108 3.171.512.512 0 01-.512.064c-.47-.172-.944-.333-1.416-.5l-.7-.241v1.519a1.009 1.009 0 01-.042.293.775.775 0 01-1.511-.229c0-.653-.006-1.305 0-1.958a.2.2 0 00-.158-.227q-3.2-1.109-6.405-2.224A.545.545 0 010 38.348m10.693-1.395a.387.387 0 00.386-.389.389.389 0 10-.778.006.387.387 0 00.392.383M9.136 38.51a.387.387 0 00.385-.39.389.389 0 10-.778.008.387.387 0 00.393.382m2.073.259a.387.387 0 00.388-.387.389.389 0 10-.778 0 .387.387 0 00.39.385M9.9 40.326a.386.386 0 00.4-.379.389.389 0 10-.778-.013.388.388 0 00.382.393" transform="translate(0 -32.952)"/><path id="Path_973261" data-name="Path 973261" d="M0 240.75l6.1 2.124a.269.269 0 01.179.163 1.547 1.547 0 002.163.749.253.253 0 01.229-.017q.824.292 1.651.574a.135.135 0 01.109.156c-.005.388 0 .777 0 1.179l-1.148-.4q-4.457-1.552-8.914-3.1a.546.546 0 01-.369-.312v-1.116" transform="translate(0 -232.319)"/><path id="Path_973262" data-name="Path 973262" d="M129.735 0a2.524 2.524 0 01.822.593 2.018 2.018 0 01.442.868.194.194 0 00.155.172 1.681 1.681 0 011.2 1.709 1.687 1.687 0 11-2.262-1.682l.142-.051a1.264 1.264 0 00-.58-.768c-.059-.036-.122-.065-.183-.1a.384.384 0 01-.226-.364.377.377 0 01.231-.347.543.543 0 00.051-.03z" transform="translate(-124.52 .103)"/><path id="Path_973263" data-name="Path 973263" d="M0 182.25l2.178.753 3.852 1.339a.149.149 0 01.121.173c-.006.353 0 .707 0 1.076l-.907-.313-5.2-1.81a.386.386 0 01-.044-.025v-1.193" transform="translate(0 -175.843)"/><path id="Path_973264" data-name="Path 973264" d="M323.925 235.569v-3.185a.221.221 0 01.14-.233 4.538 4.538 0 001.219-.991c.233-.259.433-.547.648-.822l.071-.088V233c-.017.106-.033.212-.051.317a2.624 2.624 0 01-1.606 2.1c-.121.053-.245.1-.367.15z" transform="translate(-312.716 -222.182)"/><path id="Path_973265" data-name="Path 973265" d="M263.385 275.332c.383.133.745.258 1.106.388a.11.11 0 01.059.081v1.142l-1.324-.46a2.373 2.373 0 00.156-1.151" transform="translate(-254.123 -265.705)"/></g></g></g></svg>