<svg xmlns="http://www.w3.org/2000/svg" width="23.361" height="23.363"><defs><clipPath id="clip-path"><path id="Path_2856" data-name="Path 2856" d="M9.33 13.187a3.894 3.894 0 113.9 3.886h-.007a3.894 3.894 0 01-3.893-3.886m3.882-6.005a6 6 0 00-5.986 6.008 6 6 0 106-6.01h-.011m6.231-1.647a1.4 1.4 0 101.4 1.4 1.4 1.4 0 00-1.4-1.4M6.354 22.3a3.865 3.865 0 01-2.221-2.213 6.475 6.475 0 01-.405-2.165c-.058-1.231-.069-1.6-.077-4.72s.005-3.488.058-4.72a6.479 6.479 0 01.4-2.173 3.632 3.632 0 01.874-1.345 3.614 3.614 0 011.336-.874 6.452 6.452 0 012.164-.406c1.232-.058 1.6-.069 4.718-.077s3.489 0 4.721.059a6.448 6.448 0 012.168.4 3.87 3.87 0 012.226 2.213 6.432 6.432 0 01.4 2.167c.059 1.232.069 1.6.078 4.72s-.006 3.489-.06 4.72a6.463 6.463 0 01-.4 2.17 3.866 3.866 0 01-2.213 2.221 6.471 6.471 0 01-2.167.406c-1.232.058-1.6.069-4.72.077s-3.487-.005-4.719-.059a6.466 6.466 0 01-2.168-.4M13.2 1.5c-3.172.008-3.57.02-4.815.08a8.543 8.543 0 00-2.834.55 5.955 5.955 0 00-3.407 3.425 8.586 8.586 0 00-.537 2.836c-.054 1.246-.069 1.644-.061 4.815s.02 3.573.08 4.816a8.57 8.57 0 00.55 2.833 5.716 5.716 0 001.351 2.066A5.727 5.727 0 005.6 24.263a8.582 8.582 0 002.836.537c1.246.055 1.644.069 4.815.061s3.572-.02 4.816-.079a8.6 8.6 0 002.834-.55 5.969 5.969 0 003.399-3.423 8.558 8.558 0 00.537-2.835c.054-1.246.069-1.645.061-4.817s-.02-3.57-.08-4.815a8.54 8.54 0 00-.55-2.834 5.725 5.725 0 00-1.351-2.066A5.706 5.706 0 0020.85 2.1a8.54 8.54 0 00-2.835-.537c-1.042-.046-1.491-.063-3.466-.063h-1.35" transform="translate(-1.543 -1.5)" fill="#222"/></clipPath></defs><g id="h_instagram" transform="translate(-.282 -1.025)"><g id="Group_753" data-name="Group 753" transform="translate(.282 1.025)"><g id="Group_752" data-name="Group 752" clip-path="url(#clip-path)"><path id="Rectangle_1544" data-name="Rectangle 1544" transform="translate(-1.223 -.97)" fill="#222" d="M0 0h26.107v24.972H0z"/><path id="Rectangle_1545" data-name="Rectangle 1545" transform="translate(-1.223 -.97)" fill="#47210d" d="M0 0h26.107v24.972H0z"/></g></g></g></svg>