<svg xmlns="http://www.w3.org/2000/svg" width="20.24" height="18.064"><g id="h_shop" transform="translate(-2.25 -4.5)" fill="#fff"><path id="Path_973231" data-name="Path 973231" d="M11.63 27a1.505 1.505 0 11-1.505 1.505A1.507 1.507 0 0111.63 27z" transform="translate(-2.606 -7.446)"/><path id="Path_973232" data-name="Path 973232" d="M27.38 27a1.505 1.505 0 11-1.505 1.505A1.507 1.507 0 0127.38 27z" transform="translate(-7.819 -7.446)"/><path id="Path_973233" data-name="Path 973233" d="M20.314 18.8H8.271a.753.753 0 01-.741-.622L5.382 6.005H3A.753.753 0 113 4.5h3.013a.753.753 0 01.741.622L8.9 17.3h11.414a.753.753 0 110 1.505z"/><path id="Path_973234" data-name="Path 973234" d="M21.868 16.907H10.133a.753.753 0 010-1.505h11.426l1.2-6.021H8.628a.753.753 0 110-1.505h14.594a1.129 1.129 0 011.108 1.35L22.975 16a1.132 1.132 0 01-1.107.907z" transform="translate(-1.862 -1.117)"/></g></svg>