<svg id="h_youtube" xmlns="http://www.w3.org/2000/svg" width="28.571" height="20"><defs><clipPath id="clip-path"><path id="Rectangle_101500" data-name="Rectangle 101500" fill="none" d="M0 0h28.571v20H0z"/></clipPath></defs><g id="Group_31000" data-name="Group 31000" clip-path="url(#clip-path)"><path id="Path_928053" data-name="Path 928053" d="M27.974 3.123A3.579 3.579 0 0025.449.6C23.22 0 14.286 0 14.286 0S5.351 0 3.123.6A3.578 3.578 0 00.6 3.123 37.181 37.181 0 000 10a37.169 37.169 0 00.6 6.876A3.577 3.577 0 003.123 19.4c2.228.6 11.162.6 11.162.6s8.934 0 11.163-.6a3.578 3.578 0 002.526-2.526 37.169 37.169 0 00.6-6.876 37.181 37.181 0 00-.6-6.877" fill="#47210d"/><path id="Path_928054" data-name="Path 928054" d="M22.452 19.8l7.423-4.285-7.423-4.286z" transform="translate(-11.024 -5.512)" fill="#fff"/></g></svg>