<svg id="Layer_1" data-name="Layer 1" xmlns="http://www.w3.org/2000/svg" viewBox="0 0 50 50"><defs><style>.cls-1{fill:#fff}</style></defs><g id="Layer_1-2" data-name="Layer 1-2"><path class="cls-1" d="M41.54 18.47l-10.33-3.85a.554.554 0 00-.36 0l-4.22 1.58c-1.04-2.23-3.31-3.77-5.93-3.77s-4.89 1.55-5.93 3.77l-4.19-1.6a.55.55 0 00-.47.05.5.5 0 00-.22.43v17.56c0 .22.13.41.34.49l10.33 3.85s.13.04.18.04.13 0 .18-.04l10.15-3.79 10.15 3.79s.13.04.18.04c.11 0 .22-.04.29-.09a.5.5 0 00.22-.43V18.96c0-.22-.13-.41-.34-.49h-.04zm-20.83-5.03c3.04 0 5.5 2.46 5.5 5.5s-2.46 5.5-5.5 5.5-5.5-2.46-5.5-5.5 2.46-5.5 5.5-5.5zm-9.81 2.41l3.52 1.31c-.16.58-.25 1.17-.25 1.8 0 3.43 2.66 6.25 6.02 6.52v4.13l-1.33-.56c-.27-.11-.56 0-.68.27-.11.27 0 .56.27.68l1.74.72v5.05L10.9 32.3V15.84zm10.33 9.61c3.36-.27 6.02-3.09 6.02-6.52 0-.63-.09-1.22-.25-1.8l3.52-1.31v16.44l-9.29 3.47v-10.3.02zm19.62 10.3l-9.29-3.47v-5.1l1.29.43s.11.02.16.02c.22 0 .41-.14.49-.36a.51.51 0 00-.32-.65l-1.62-.54V15.85l9.29 3.47v16.44z"/><path class="cls-1" d="M16.5 18.85l3.43.93.84 3.34c.05.22.25.38.49.4h.02c.22 0 .41-.14.49-.34l2.37-6.92c.07-.18 0-.4-.13-.52a.489.489 0 00-.52-.13l-7.03 2.28a.516.516 0 00.02.99l.02-.04zm6.35-1.96l-1.47 4.31-.49-1.94a.55.55 0 00-.36-.38l-2.07-.56 4.4-1.42-.02-.02zm-6 11.31l-1.1-.45c-.27-.11-.56 0-.68.27-.11.27 0 .56.27.68l1.1.45s.13.04.2.04c.2 0 .4-.13.49-.32.11-.27 0-.56-.27-.68v.02zm7.74.16l-2.05.77c-.27.11-.4.4-.31.66.07.22.27.34.49.34.05 0 .13 0 .18-.04l2.05-.77c.27-.11.4-.4.31-.66-.11-.27-.4-.4-.66-.31zm4.78-1.24c-.11-.27-.4-.4-.66-.31l-2.05.77c-.27.11-.4.4-.31.66.07.22.27.34.49.34.05 0 .13 0 .18-.04l2.05-.77c.27-.11.4-.4.31-.66zm5.55 1.2l1.11.38s.11.02.16.02c.22 0 .41-.14.49-.36a.51.51 0 00-.32-.65l-1.11-.38a.51.51 0 00-.65.32c-.09.27.05.56.32.65v.02z"/></g></svg>