<svg id="Layer_1" data-name="Layer 1" xmlns="http://www.w3.org/2000/svg" viewBox="0 0 50 50"><defs><style>.cls-1{fill:#fff}</style></defs><g id="Layer_1-2" data-name="Layer 1-2"><path class="cls-1" d="M46.39 20.59h-3.7v-9.17c0-.4-.32-.72-.72-.72H20.38c-.4 0-.72.32-.72.72v13.24H3.58c-.27 0-.55.17-.65.42-.12.27-.05.57.12.77l8.32 8.82H3.58c-.4 0-.72.32-.72.72s.32.72.72.72h42.83c.4 0 .72-.32.72-.72V21.3c0-.4-.32-.72-.72-.72h-.02zm-7.48 4.05H21.1v-.97h18.51l-.67.97h-.02zM25.07 14.53v7.7H23.8v-7.7h1.27zm2.69 0v7.7h-1.27v-7.7h1.27zm2.71 0v7.7H29.2v-7.7h1.27zm2.7 0v7.7H31.9v-7.7h1.27zm2.71 0v7.7h-1.27v-7.7h1.27zm2.68 0v7.7h-1.27v-7.7h1.27zm2.71 0v6.73l-.7.97h-.6v-7.7h1.29zm-18.9 7.72H21.1v-7.73h1.27v7.73zM21.1 12.12h20.2v.97H21.1v-.97zm-7.78 22.56l-8.1-8.57h34.04c.22 0 .45-.12.6-.3l1.71-2.43.94-1.34h3.2v12.67H13.32v-.02z"/><path class="cls-1" d="M16.23 27.75h-2.31c-.4 0-.72.32-.72.72s.32.72.72.72h2.31c.4 0 .72-.32.72-.72s-.32-.72-.72-.72zm4.92 0h-2.31c-.4 0-.72.32-.72.72s.32.72.72.72h2.31c.4 0 .72-.32.72-.72s-.32-.72-.72-.72zm4.92 0h-2.31c-.4 0-.72.32-.72.72s.32.72.72.72h2.31c.4 0 .72-.32.72-.72s-.32-.72-.72-.72zm4.94 0H28.7c-.4 0-.72.32-.72.72s.32.72.72.72h2.31c.4 0 .72-.32.72-.72s-.32-.72-.72-.72zm4.92 0h-2.31c-.4 0-.72.32-.72.72s.32.72.72.72h2.31c.4 0 .72-.32.72-.72s-.32-.72-.72-.72zm4.92 0h-2.31c-.4 0-.72.32-.72.72s.32.72.72.72h2.31c.4 0 .72-.32.72-.72s-.32-.72-.72-.72zm5.54 10.11H17.94c-.4 0-.72.32-.72.72s.32.72.72.72h28.45c.4 0 .72-.32.72-.72s-.32-.72-.72-.72zm-32.47 0H3.58c-.4 0-.72.32-.72.72s.32.72.72.72h10.34c.4 0 .72-.32.72-.72s-.32-.72-.72-.72z"/></g></svg>