<svg id="Layer_1" data-name="Layer 1" xmlns="http://www.w3.org/2000/svg" viewBox="0 0 50 50"><defs><style>.cls-1{fill:#fff}</style></defs><g id="Layer_1-2" data-name="Layer 1-2"><path class="cls-1" d="M43.31 38.21h-4V19.22h1.06c.34 0 .62-.28.62-.62v-4.42c0-.13-.04-.26-.11-.36l-2.21-3.04a.635.635 0 00-.49-.26H11.81c-.19 0-.38.09-.49.26l-2.21 3.06c-.06.11-.11.21-.11.36v4.42c0 .34.28.62.62.62h1.06v19.01H6.66c-.34 0-.62.28-.62.62s.28.62.62.62h36.67c.34 0 .62-.28.62-.62s-.28-.62-.62-.62l-.02-.04zm-31.2-26.48h25.76l1.32 1.83h-28.4l1.32-1.83zm-1.91 3.06h29.56v3.19H10.2v-3.19zm1.68 4.42H38.1v19.01H11.88V19.21z"/><path class="cls-1" d="M14.32 21.68c-.34 0-.62.28-.62.62v12.93c0 .34.28.62.62.62s.62-.28.62-.62V22.3c0-.34-.28-.62-.62-.62zm1.98 0c-.34 0-.62.28-.62.62v12.93c0 .34.28.62.62.62s.62-.28.62-.62V22.3c0-.34-.28-.62-.62-.62zm17.4 0c-.34 0-.62.28-.62.62v12.93c0 .34.28.62.62.62s.62-.28.62-.62V22.3c0-.34-.28-.62-.62-.62zm1.98 0c-.34 0-.62.28-.62.62v12.93c0 .34.28.62.62.62s.62-.28.62-.62V22.3c0-.34-.28-.62-.62-.62zm-15.81 0c-.34 0-.62.28-.62.62v12.93c0 .34.28.62.62.62s.62-.28.62-.62V22.3c0-.34-.28-.62-.62-.62zm8.45 0c-.34 0-.62.28-.62.62v12.93c0 .34.28.62.62.62s.62-.28.62-.62V22.3c0-.34-.28-.62-.62-.62zm3.57 4.66c-.34 0-.62.28-.62.62v8.27c0 .34.28.62.62.62s.62-.28.62-.62v-8.27c0-.34-.28-.62-.62-.62zm0-4.66c-.34 0-.62.28-.62.62v2.38c0 .34.28.62.62.62s.62-.28.62-.62V22.3c0-.34-.28-.62-.62-.62zm-9.23 0c-.34 0-.62.28-.62.62v12.93c0 .34.28.62.62.62s.62-.28.62-.62V22.3c0-.34-.28-.62-.62-.62zm1.66 7.72c-.34 0-.62.28-.62.62v5.21c0 .34.28.62.62.62s.62-.28.62-.62v-5.21c0-.34-.28-.62-.62-.62zm0-7.72c-.34 0-.62.28-.62.62v5.13c0 .34.28.62.62.62s.62-.28.62-.62V22.3c0-.34-.28-.62-.62-.62zm1.66 0c-.34 0-.62.28-.62.62v12.93c0 .34.28.62.62.62s.62-.28.62-.62V22.3c0-.34-.28-.62-.62-.62z"/></g></svg>