<svg id="Layer_1" data-name="Layer 1" xmlns="http://www.w3.org/2000/svg" viewBox="0 0 50 50"><defs><style>.cls-1{fill:#fff}</style></defs><g id="Layer_1-2" data-name="Layer 1-2"><path class="cls-1" d="M16.28 36.09c1.67 1.29 3.58 2.15 5.67 2.56v1.72c0 1.08.88 1.96 1.96 1.96h2.43c1.08 0 1.96-.88 1.96-1.96v-1.71c1.81-.33 3.42-.95 4.78-1.85 2.44-1.61 3.71-3.87 3.76-6.7.04-1.79-.47-3.34-1.52-4.6-1.54-1.84-3.9-3.04-7.03-3.57v-2.92c.21.14.41.3.61.48.44.37.96.55 1.54.56.47.01 1.02-.26 1.1-.3.03-.01.06-.03.08-.04l2.72-1.71c.7-.44.86-1.02.86-1.42 0-.46-.18-.88-.53-1.23-1.67-1.89-3.81-3.12-6.37-3.67V9.64c0-1.08-.88-1.96-1.96-1.96h-2.43c-1.08 0-1.96.88-1.96 1.96v1.96c-1.1.2-2.12.5-3.03.92-3.5 1.59-5.24 4.03-5.18 7.25.03 1.58.51 3 1.43 4.22 1.43 1.92 3.71 3.18 6.77 3.74v4.2c-.96-.49-1.9-1.21-2.78-2.16a1.92 1.92 0 00-1.56-.75c-.34 0-.8.18-.98.26-.01 0-.03.01-.04.02 0 0-.03.01-.03.02l-2.47 1.45c-.79.45-.95 1.08-.94 1.53 0 .4.15.77.43 1.09.68.94 1.59 1.84 2.7 2.69zm-1.55-4.22l2.44-1.43c.15-.07.37-.14.44-.14.25 0 .42.08.57.28.01.01.02.03.04.04 1.28 1.39 2.68 2.37 4.15 2.89.2.07.41.04.58-.08.17-.12.27-.31.27-.52v-5.7c0-.31-.23-.58-.54-.63-3-.46-5.18-1.59-6.49-3.34-.77-1.02-1.16-2.16-1.18-3.48-.05-2.7 1.4-4.69 4.44-6.07.95-.43 2.03-.74 3.22-.9.31-.04.55-.31.55-.63v-2.5c0-.38.31-.69.69-.69h2.43c.38 0 .69.31.69.69v2.57c0 .31.22.57.53.63 2.51.44 4.6 1.57 6.18 3.38.01.02.03.03.05.05.13.12.15.21.15.29 0 .07 0 .2-.27.37l-2.69 1.69c-.15.07-.4.17-.52.17-.28 0-.52-.09-.72-.25-.56-.49-1.17-.89-1.8-1.18a.63.63 0 00-.9.58v4.57c0 .32.23.59.55.63 3.07.43 5.35 1.51 6.77 3.21.85 1.03 1.25 2.26 1.22 3.76-.05 2.43-1.09 4.28-3.19 5.66-1.34.88-2.96 1.46-4.81 1.74-.31.05-.54.31-.54.63v2.26c0 .38-.31.68-.69.68h-2.43a.69.69 0 01-.69-.68v-2.25c0-.31-.23-.58-.54-.63-2.09-.33-3.99-1.14-5.63-2.41-1.03-.78-1.85-1.6-2.46-2.45-.01-.02-.03-.04-.04-.06-.11-.13-.13-.22-.13-.29 0-.08 0-.23.31-.41z"/><path class="cls-1" d="M23.23 17.79c0-.21-.1-.4-.28-.53a.648.648 0 00-.59-.07l-.19.07s-.03.01-.04.02c-1.48.7-1.78 1.74-1.77 2.48 0 .86.36 2.03 2.01 2.66a.663.663 0 00.59-.07.64.64 0 00.28-.52v-4.05zm-1.28 2.91c-.27-.31-.33-.64-.33-.93 0-.23.04-.53.33-.83v1.76zm5.37 12.64c.1.07.22.1.34.1.09 0 .18-.02.26-.06.18-.08.4-.19.6-.31 1.13-.69 1.73-1.71 1.74-2.97 0-.98-.4-2.28-2.41-2.91-.2-.06-.4-.03-.57.09-.16.12-.26.31-.26.51v5c0 .22.11.42.29.53zm.98-4.55c.6.4.7.89.69 1.31 0 .65-.23 1.16-.69 1.57v-2.88z"/></g></svg>