<svg xmlns="http://www.w3.org/2000/svg" width="70" height="70"><g id="port" transform="translate(0 -.167)"><g id="Group_9" data-name="Group 9" transform="translate(12.096 5.975)"><path id="Path_111" data-name="Path 111" d="M48.065 36.958a3.033 3.033 0 00-5.165-2.427l-3.761 3.761a2.427 2.427 0 001.674 4.149.583.583 0 01.51.291.559.559 0 010 .582 18.394 18.394 0 01-12.351 9.706 1.286 1.286 0 01-1.019-.243 1.237 1.237 0 01-.461-.946V28.853A1.213 1.213 0 0128.7 27.64h7.28a2.427 2.427 0 100-4.853H28.7a1.213 1.213 0 01-1.213-1.213v-4.1a1.189 1.189 0 01.752-1.116 8.493 8.493 0 10-6.358 0 1.189 1.189 0 01.752 1.116v4.1a1.213 1.213 0 01-1.213 1.213h-7.28a2.427 2.427 0 000 4.853h7.28a1.213 1.213 0 011.213 1.213v22.931a1.237 1.237 0 01-.461.946 1.286 1.286 0 01-1.019.243A18.394 18.394 0 018.8 43.267a.558.558 0 010-.582.582.582 0 01.51-.291 2.427 2.427 0 001.674-4.149l-3.71-3.665a3.046 3.046 0 00-5.169 2.4 23.053 23.053 0 0045.96 0zm-26.62-28.44a3.64 3.64 0 113.64 3.64 3.64 3.64 0 01-3.64-3.64z" transform="translate(-2.097 .013)" fill="#fff"/></g></g></svg>