<?xml version="1.0" encoding="UTF-8"?>
<svg id="Layer_2" data-name="Layer 2" xmlns="http://www.w3.org/2000/svg" viewBox="0 0 69.93 69.93">
  <defs>
    <style>
      .cls-1 {
        fill: #fff;
      }
    </style>
  </defs>
  <g id="Layer_1-2" data-name="Layer 1">
    <g>
      <path class="cls-1" d="M66.56,3.37c-.14-.14-1.33.96-1.33.96,0,0,0,0-.01.01h0s-9.8,9.8-9.8,9.8l.38.38,9.81-9.81s1.1-1.2.96-1.33Z"/>
      <path class="cls-1" d="M31.39,38.54c-2.47-2.47-5.11-3.95-6.41-3.7l-3.23,3.23c1.3-.25,3.94,1.23,6.41,3.7,2.47,2.47,3.95,5.11,3.7,6.41l3.23-3.23c.25-1.3-1.23-3.94-3.7-6.41Z"/>
      <path class="cls-1" d="M56.94,12.99c-2.53-2.53-5.44-1.42-5.44-1.42,0,0-.01.02-.02.02h0s-10.47,10.47-10.47,10.47c1.22.65,2.58,1.68,3.88,2.98,1.22,1.22,2.3,2.6,2.98,3.87l10.48-10.48s1.08-2.94-1.42-5.44Z"/>
      <path class="cls-1" d="M44.51,25.41c-2.79-2.79-5.84-4.28-6.8-3.31,0,0-.01.02-.02.02h0s-3.45,3.45-3.45,3.45c1.3-.25,3.94,1.23,6.41,3.7,2.47,2.47,3.95,5.11,3.7,6.41l3.47-3.47c.96-.96-.52-4.01-3.31-6.8Z"/>
      <path class="cls-1" d="M35.82,34.1c-2.47-2.47-5.11-3.95-6.41-3.7l-3.55,3.55c1.3-.25,3.94,1.23,6.41,3.7,2.47,2.47,3.95,5.11,3.7,6.41l3.55-3.55c.25-1.3-1.23-3.94-3.7-6.41Z"/>
      <path class="cls-1" d="M39.77,30.16c-2.47-2.47-5.11-3.95-6.41-3.7l-3.06,3.06c1.3-.25,3.94,1.23,6.41,3.7,2.47,2.47,3.95,5.11,3.7,6.41l3.06-3.06c.25-1.3-1.23-3.94-3.7-6.41Z"/>
      <path class="cls-1" d="M30.64,49.41c-.95.95-3.99-.54-6.78-3.33-2.79-2.79-4.29-5.83-3.33-6.78.95-.95,3.99.54,6.78,3.33,2.79,2.79,4.29,5.83,3.33,6.78ZM26.83,43.1c-2.03-2.03-4.23-3.11-4.92-2.42-.69.69.39,2.89,2.42,4.92,2.03,2.03,4.23,3.11,4.92,2.42.69-.69-.39-2.89-2.42-4.92Z"/>
      <path class="cls-1" d="M69.93,53.65l-16.28,16.28-19.67-19.67,16.28-16.28,19.67,19.67ZM53.76,63.76l-2.72,2.72,2.72,2.72,2.72-2.72-2.72-2.72ZM56.94,60.58l-2.72,2.72,2.72,2.72,2.72-2.72-2.72-2.72ZM60.12,57.4l-2.72,2.72,2.72,2.72,2.72-2.72-2.72-2.72ZM63.3,54.22l-2.72,2.72,2.72,2.72,2.72-2.72-2.72-2.72ZM66.48,51.04l-2.72,2.72,2.72,2.72,2.72-2.72-2.72-2.72ZM50.52,60.52l-2.72,2.72,2.72,2.72,2.72-2.72-2.72-2.72ZM53.7,57.34l-2.72,2.72,2.72,2.72,2.72-2.72-2.72-2.72ZM56.88,54.16l-2.72,2.72,2.72,2.72,2.72-2.72-2.72-2.72ZM60.06,50.98l-2.72,2.72,2.72,2.72,2.72-2.72-2.72-2.72ZM63.24,47.8l-2.72,2.72,2.72,2.72,2.72-2.72-2.72-2.72ZM47.28,57.28l-2.72,2.72,2.72,2.72,2.72-2.72-2.72-2.72ZM50.46,54.1l-2.72,2.72,2.72,2.72,2.72-2.72-2.72-2.72ZM53.64,50.92l-2.72,2.72,2.72,2.72,2.72-2.72-2.72-2.72ZM56.82,47.74l-2.72,2.72,2.72,2.72,2.72-2.72-2.72-2.72ZM60,44.57l-2.72,2.72,2.72,2.72,2.72-2.72-2.72-2.72ZM44.05,54.04l-2.72,2.72,2.72,2.72,2.72-2.72-2.72-2.72ZM47.22,50.86l-2.72,2.72,2.72,2.72,2.72-2.72-2.72-2.72ZM50.4,47.68l-2.72,2.72,2.72,2.72,2.72-2.72-2.72-2.72ZM53.58,44.51l-2.72,2.72,2.72,2.72,2.72-2.72-2.72-2.72ZM56.76,41.33l-2.72,2.72,2.72,2.72,2.72-2.72-2.72-2.72ZM40.81,50.8l-2.72,2.72,2.72,2.72,2.72-2.72-2.72-2.72ZM43.99,47.63l-2.72,2.72,2.72,2.72,2.72-2.72-2.72-2.72ZM47.16,44.45l-2.72,2.72,2.72,2.72,2.72-2.72-2.72-2.72ZM50.34,41.27l-2.72,2.72,2.72,2.72,2.72-2.72-2.72-2.72ZM53.52,38.09l-2.72,2.72,2.72,2.72,2.72-2.72-2.72-2.72ZM37.57,47.57l-2.72,2.72,2.72,2.72,2.72-2.72-2.72-2.72ZM40.75,44.39l-2.72,2.72,2.72,2.72,2.72-2.72-2.72-2.72ZM43.93,41.21l-2.72,2.72,2.72,2.72,2.72-2.72-2.72-2.72ZM47.11,38.03l-2.72,2.72,2.72,2.72,2.72-2.72-2.72-2.72ZM50.28,34.85l-2.72,2.72,2.72,2.72,2.72-2.72-2.72-2.72Z"/>
      <path class="cls-1" d="M35.95,19.67l-16.28,16.28L0,16.28,16.28,0l19.67,19.67ZM3.45,13.45l-2.72,2.72,2.72,2.72,2.72-2.72-2.72-2.72ZM6.63,10.27l-2.72,2.72,2.72,2.72,2.72-2.72-2.72-2.72ZM9.81,7.09l-2.72,2.72,2.72,2.72,2.72-2.72-2.72-2.72ZM12.99,3.91l-2.72,2.72,2.72,2.72,2.72-2.72-2.72-2.72ZM16.17.74l-2.72,2.72,2.72,2.72,2.72-2.72-2.72-2.72ZM6.69,16.69l-2.72,2.72,2.72,2.72,2.72-2.72-2.72-2.72ZM9.87,13.51l-2.72,2.72,2.72,2.72,2.72-2.72-2.72-2.72ZM13.05,10.33l-2.72,2.72,2.72,2.72,2.72-2.72-2.72-2.72ZM16.23,7.15l-2.72,2.72,2.72,2.72,2.72-2.72-2.72-2.72ZM19.41,3.97l-2.72,2.72,2.72,2.72,2.72-2.72-2.72-2.72ZM9.93,19.93l-2.72,2.72,2.72,2.72,2.72-2.72-2.72-2.72ZM13.11,16.75l-2.72,2.72,2.72,2.72,2.72-2.72-2.72-2.72ZM16.29,13.57l-2.72,2.72,2.72,2.72,2.72-2.72-2.72-2.72ZM19.47,10.39l-2.72,2.72,2.72,2.72,2.72-2.72-2.72-2.72ZM22.64,7.21l-2.72,2.72,2.72,2.72,2.72-2.72-2.72-2.72ZM13.17,23.16l-2.72,2.72,2.72,2.72,2.72-2.72-2.72-2.72ZM16.35,19.99l-2.72,2.72,2.72,2.72,2.72-2.72-2.72-2.72ZM19.53,16.81l-2.72,2.72,2.72,2.72,2.72-2.72-2.72-2.72ZM22.7,13.63l-2.72,2.72,2.72,2.72,2.72-2.72-2.72-2.72ZM25.88,10.45l-2.72,2.72,2.72,2.72,2.72-2.72-2.72-2.72ZM16.41,26.4l-2.72,2.72,2.72,2.72,2.72-2.72-2.72-2.72ZM19.58,23.22l-2.72,2.72,2.72,2.72,2.72-2.72-2.72-2.72ZM22.76,20.05l-2.72,2.72,2.72,2.72,2.72-2.72-2.72-2.72ZM25.94,16.87l-2.72,2.72,2.72,2.72,2.72-2.72-2.72-2.72ZM29.12,13.69l-2.72,2.72,2.72,2.72,2.72-2.72-2.72-2.72ZM19.64,29.64l-2.72,2.72,2.72,2.72,2.72-2.72-2.72-2.72ZM22.82,26.46l-2.72,2.72,2.72,2.72,2.72-2.72-2.72-2.72ZM26,23.28l-2.72,2.72,2.72,2.72,2.72-2.72-2.72-2.72ZM29.18,20.1l-2.72,2.72,2.72,2.72,2.72-2.72-2.72-2.72ZM32.36,16.93l-2.72,2.72,2.72,2.72,2.72-2.72-2.72-2.72Z"/>
      <rect class="cls-1" x="28.04" y="27.46" width="1.47" height="2.97" transform="translate(-12.04 28.82) rotate(-45)"/>
      <path class="cls-1" d="M67.35,2.57c.44.44.44,1.15,0,1.59-.44.44-1.15.44-1.59,0-.44-.44-.44-1.15,0-1.59.44-.44,1.15-.44,1.59,0Z"/>
      <rect class="cls-1" x="40.25" y="39.68" width="1.47" height="2.97" transform="translate(-17.1 41.03) rotate(-45)"/>
    </g>
  </g>
</svg>