<svg width="222" height="71" viewBox="0 0 222 71" fill="none" xmlns="http://www.w3.org/2000/svg">
<path d="M0 8.32052V14.3872H5.27927V8.32052H0ZM0 17.8381V43.0872H5.27927V17.8381H0Z" fill="#31B1D6"/>
<path d="M23.5753 13.9457V8.32113H8.87451V13.2211H18.124V43.0878H23.5876V13.9457H23.5753ZM25.7264 8.32052V13.2205H32.6958V8.32052H25.7264Z" fill="#31B1D6"/>
<path d="M45.2639 17.5132C43.5185 17.5132 42.0251 17.8817 40.7775 18.6124C40.7529 18.6246 40.7283 18.6369 40.7099 18.6553V23.6229C41.7362 22.751 43.033 22.3211 44.6063 22.3211H46.8004V17.5132H45.2639ZM38.7617 29.124L38.7862 17.8381H33.4885V43.0872H38.7678V29.124H38.7617Z" fill="#31B1D6"/>
<path d="M66.375 17.8381V32.7284C66.375 33.9381 66.1353 35.0003 65.6498 35.8968C65.1643 36.8056 64.5067 37.5056 63.6647 37.9968C62.8227 38.5003 61.8455 38.746 60.7209 38.746C59.633 38.746 58.6681 38.5065 57.8262 38.0214C56.9842 37.5425 56.3327 36.867 55.8656 35.9951C55.3986 35.1232 55.165 34.11 55.165 32.9617V17.8381H49.8857V33.4284C49.8857 35.4486 50.2852 37.2293 51.078 38.7705C51.8708 40.3117 52.9832 41.5091 54.4152 42.3626C55.8472 43.2161 57.5127 43.646 59.4118 43.646C61.2494 43.646 62.8535 43.2284 64.224 42.3872C65.2257 41.7732 66.0247 40.9626 66.6086 39.9617V43.0872H71.6051V17.8381H66.375Z" fill="#31B1D6"/>
<path d="M85.9187 23.2299C86.6746 22.7632 87.4981 22.4501 88.3893 22.3027V17.3413C86.4226 17.5132 84.6403 18.0659 83.0486 18.9869C81.088 20.1229 79.5454 21.6825 78.4269 23.672C77.3022 25.6676 76.7429 27.9027 76.7429 30.3957C76.7429 32.9132 77.3083 35.1729 78.4459 37.1624C79.5829 39.1518 81.1255 40.7299 83.0737 41.8966C84.6532 42.8483 86.4294 43.4071 88.3899 43.5852V38.6238C87.4987 38.4703 86.6752 38.151 85.9193 37.672C84.7823 36.9597 83.8911 35.9711 83.2335 34.7124C82.5821 33.4536 82.2564 32.029 82.2564 30.4387C82.2564 28.8545 82.5821 27.4299 83.2335 26.1711C83.8905 24.9117 84.7817 23.9293 85.9187 23.2299ZM96.3113 34.3624C95.752 35.701 94.9039 36.7632 93.7669 37.5553C92.7713 38.2553 91.6343 38.6422 90.3375 38.7282V43.6343C91.8678 43.5729 93.2998 43.2659 94.6334 42.7132C96.1269 42.0931 97.4298 41.2457 98.5299 40.1711C99.6362 39.0966 100.441 37.8931 100.939 36.5545L96.3113 34.3624ZM98.4869 20.6878C97.3806 19.6317 96.0777 18.7966 94.5843 18.1887C93.2568 17.6483 91.8432 17.3475 90.3375 17.2922V22.1983C91.6097 22.2904 92.7467 22.6773 93.7669 23.3711C94.9346 24.1632 95.7827 25.2132 96.3113 26.5211L100.939 24.372C100.411 22.9714 99.5931 21.7433 98.4869 20.6878Z" fill="#31B1D6"/>
<path d="M119.014 27.9696L128.54 17.8381H121.958L113.255 26.8214V33.4039L115.142 31.396L122.892 43.0872H128.964L119.014 27.9696ZM111.356 25.6179V7.76175H106.077V43.0872H111.356V37.4135H111.307V25.6179H111.356Z" fill="#31B1D6"/>
<path d="M155.023 27.853C153.621 26.281 151.538 25.0714 148.766 24.2302L142.694 22.3205C141.231 21.8846 140.144 21.2337 139.424 20.3617C138.705 19.4898 138.349 18.4951 138.349 17.3714C138.349 16.4074 138.589 15.56 139.074 14.8293C139.56 14.0986 140.236 13.5398 141.108 13.153C141.975 12.76 142.983 12.5635 144.138 12.5635V7.76175C141.957 7.76175 140.027 8.17929 138.324 9.02052C136.628 9.86175 135.301 11.0223 134.336 12.496C133.371 13.9758 132.885 15.6951 132.885 17.6539C132.885 19.8951 133.567 21.8477 134.938 23.5117C136.309 25.1758 138.306 26.41 140.918 27.2205L147.457 29.2714C148.858 29.7074 149.915 30.2968 150.634 31.046C151.354 31.7951 151.71 32.8021 151.71 34.0793C151.71 35.0126 151.452 35.8354 150.936 36.5539C150.425 37.2723 149.7 37.8188 148.766 38.2117C147.979 38.5372 147.088 38.7275 146.08 38.7828V43.6275C148.084 43.5354 149.86 43.1117 151.427 42.3626C153.203 41.5091 154.599 40.3363 155.606 38.8381C156.62 37.346 157.124 35.6389 157.124 33.7047C157.124 31.3714 156.424 29.4188 155.023 27.853ZM139.892 37.0635C138.275 35.9153 137.04 34.2696 136.204 32.1205L131.533 34.0793C132.154 35.946 133.119 37.5977 134.428 39.0284C135.737 40.4591 137.323 41.5889 139.191 42.4117C140.734 43.0933 142.381 43.4925 144.138 43.603V38.7091C142.571 38.5126 141.151 37.9667 139.892 37.0635ZM154.254 11.8635C153.025 10.5925 151.55 9.58543 149.842 8.85473C148.674 8.35736 147.42 8.03192 146.08 7.87842V12.7539C147.205 12.981 148.231 13.4232 149.166 14.0617C150.61 15.0565 151.679 16.4688 152.361 18.3047L156.94 16.303C156.381 14.6211 155.484 13.1407 154.254 11.8635Z" fill="#31B1D6"/>
<path d="M185.457 24.8381C184.91 23.3767 184.123 22.081 183.097 20.9451C182.07 19.8091 180.81 18.9126 179.311 18.2617C178.198 17.7705 176.969 17.4635 175.636 17.3407V21.8477C176.465 22.0012 177.215 22.3082 177.891 22.7626C178.93 23.4626 179.71 24.4144 180.227 25.6117C180.515 26.281 180.669 26.9995 180.7 27.7793H167.363C167.48 27.0425 167.683 26.367 167.966 25.753C168.556 24.4574 169.398 23.4626 170.485 22.7626C171.432 22.1547 172.501 21.8109 173.687 21.731V17.2916C171.536 17.3714 169.594 17.9363 167.867 18.9863C165.999 20.1223 164.512 21.6696 163.412 23.6284C162.305 25.5872 161.752 27.8407 161.752 30.3951C161.752 32.8819 162.293 35.1293 163.387 37.1372C164.475 39.1451 165.993 40.7293 167.941 41.896C169.637 42.9153 171.555 43.4863 173.687 43.6214V38.9179C172.593 38.7951 171.592 38.4574 170.694 37.9047C169.527 37.1925 168.623 36.1977 167.984 34.9205C167.548 34.0425 167.296 33.0661 167.234 31.9793H186.041C186.133 31.6047 186.194 31.2056 186.225 30.7696C186.256 30.3337 186.274 29.91 186.274 29.5047C186.274 27.8597 185.998 26.3056 185.457 24.8381ZM181.136 35.2957C180.509 36.3825 179.661 37.2729 178.592 37.9545C177.744 38.4887 176.76 38.8203 175.636 38.9308V43.6159C176.969 43.5299 178.217 43.2659 179.385 42.8299C180.829 42.2896 182.076 41.5404 183.121 40.5887C184.16 39.6431 184.934 38.5746 185.432 37.3957L181.136 35.2957Z" fill="#31B1D6"/>
<path d="M208.313 9.48166L205.572 17.6053L209.905 30.3957H201.098L199.445 35.2957H211.589L214.25 43.0878H220.138L208.313 9.48166ZM204.509 14.4553L204.546 14.5659L206.647 8.32113H201.079L188.843 43.0878H194.725L196.04 39.3053L199.045 30.3957H199.021L204.509 14.4553Z" fill="#31B1D6"/>
<path d="M51.5313 65.7562V53.8542H54.0173V65.7562H51.5313ZM51.5313 52.2262V49.3662H54.0173V52.2262H51.5313ZM63.3039 66.0202C62.0866 66.0202 61.0013 65.7635 60.0479 65.2502C59.1093 64.7368 58.3686 64.0328 57.8259 63.1382C57.2979 62.2435 57.0339 61.2242 57.0339 60.0802V49.3662H59.6299V59.9702C59.6299 60.6888 59.7839 61.3268 60.0919 61.8842C60.4146 62.4415 60.8473 62.8742 61.3899 63.1822C61.9473 63.4902 62.5853 63.6442 63.3039 63.6442C64.0373 63.6442 64.6753 63.4902 65.2179 63.1822C65.7753 62.8742 66.2079 62.4415 66.5159 61.8842C66.8386 61.3268 66.9999 60.6888 66.9999 59.9702V49.3662H69.5739V60.0802C69.5739 61.2242 69.3099 62.2435 68.7819 63.1382C68.2539 64.0328 67.5133 64.7368 66.5599 65.2502C65.6213 65.7635 64.5359 66.0202 63.3039 66.0202ZM78.966 66.0202C77.7487 66.0202 76.6634 65.7635 75.71 65.2502C74.7714 64.7368 74.0307 64.0328 73.488 63.1382C72.96 62.2435 72.696 61.2242 72.696 60.0802V49.3662H75.292V59.9702C75.292 60.6888 75.446 61.3268 75.754 61.8842C76.0767 62.4415 76.5094 62.8742 77.052 63.1822C77.6094 63.4902 78.2474 63.6442 78.966 63.6442C79.6994 63.6442 80.3374 63.4902 80.88 63.1822C81.4374 62.8742 81.87 62.4415 82.178 61.8842C82.5007 61.3268 82.662 60.6888 82.662 59.9702V49.3662H85.236V60.0802C85.236 61.2242 84.972 62.2435 84.444 63.1382C83.916 64.0328 83.1754 64.7368 82.222 65.2502C81.2834 65.7635 80.198 66.0202 78.966 66.0202ZM99.9698 66.0202C98.8112 66.0202 97.7332 65.8075 96.7358 65.3822C95.7532 64.9568 94.8952 64.3702 94.1618 63.6222C93.4432 62.8595 92.8785 61.9648 92.4678 60.9382C92.0572 59.9115 91.8518 58.7822 91.8518 57.5502C91.8518 56.3328 92.0498 55.2108 92.4458 54.1842C92.8565 53.1428 93.4285 52.2482 94.1618 51.5002C94.8952 50.7375 95.7532 50.1508 96.7358 49.7402C97.7185 49.3148 98.7965 49.1022 99.9698 49.1022C101.129 49.1022 102.163 49.3002 103.072 49.6962C103.996 50.0922 104.773 50.6128 105.404 51.2582C106.035 51.8888 106.489 52.5782 106.768 53.3262L104.436 54.4262C104.084 53.5462 103.519 52.8348 102.742 52.2922C101.979 51.7348 101.055 51.4562 99.9698 51.4562C98.8845 51.4562 97.9238 51.7128 97.0878 52.2262C96.2518 52.7395 95.5992 53.4508 95.1298 54.3602C94.6752 55.2695 94.4478 56.3328 94.4478 57.5502C94.4478 58.7675 94.6752 59.8382 95.1298 60.7622C95.5992 61.6715 96.2518 62.3828 97.0878 62.8962C97.9238 63.3948 98.8845 63.6442 99.9698 63.6442C101.055 63.6442 101.979 63.3728 102.742 62.8302C103.519 62.2875 104.084 61.5762 104.436 60.6962L106.768 61.7962C106.489 62.5295 106.035 63.2188 105.404 63.8642C104.773 64.5095 103.996 65.0302 103.072 65.4262C102.163 65.8222 101.129 66.0202 99.9698 66.0202ZM114.723 66.0202C113.579 66.0202 112.53 65.7488 111.577 65.2062C110.638 64.6635 109.89 63.9228 109.333 62.9842C108.775 62.0455 108.497 60.9822 108.497 59.7942C108.497 58.5915 108.775 57.5282 109.333 56.6042C109.89 55.6655 110.638 54.9322 111.577 54.4042C112.515 53.8615 113.564 53.5902 114.723 53.5902C115.896 53.5902 116.945 53.8615 117.869 54.4042C118.807 54.9322 119.548 55.6655 120.091 56.6042C120.648 57.5282 120.927 58.5915 120.927 59.7942C120.927 60.9968 120.648 62.0675 120.091 63.0062C119.533 63.9448 118.785 64.6855 117.847 65.2282C116.908 65.7562 115.867 66.0202 114.723 66.0202ZM114.723 63.7102C115.427 63.7102 116.05 63.5415 116.593 63.2042C117.135 62.8668 117.561 62.4048 117.869 61.8182C118.191 61.2168 118.353 60.5422 118.353 59.7942C118.353 59.0462 118.191 58.3788 117.869 57.7922C117.561 57.2055 117.135 56.7435 116.593 56.4062C116.05 56.0688 115.427 55.9002 114.723 55.9002C114.033 55.9002 113.41 56.0688 112.853 56.4062C112.31 56.7435 111.877 57.2055 111.555 57.7922C111.247 58.3788 111.093 59.0462 111.093 59.7942C111.093 60.5422 111.247 61.2168 111.555 61.8182C111.877 62.4048 112.31 62.8668 112.853 63.2042C113.41 63.5415 114.033 63.7102 114.723 63.7102ZM123.354 65.7562V53.8542H125.73V56.4282L125.422 56.0322C125.671 55.2255 126.126 54.6168 126.786 54.2062C127.446 53.7955 128.201 53.5902 129.052 53.5902C130.005 53.5902 130.848 53.8468 131.582 54.3602C132.33 54.8588 132.828 55.5262 133.078 56.3622L132.374 56.4282C132.726 55.4748 133.261 54.7635 133.98 54.2942C134.713 53.8248 135.549 53.5902 136.488 53.5902C137.309 53.5902 138.05 53.7808 138.71 54.1622C139.384 54.5435 139.92 55.0715 140.316 55.7462C140.712 56.4208 140.91 57.1908 140.91 58.0562V65.7562H138.424V58.7382C138.424 58.1368 138.314 57.6308 138.094 57.2202C137.888 56.7948 137.595 56.4722 137.214 56.2522C136.847 56.0175 136.414 55.9002 135.916 55.9002C135.417 55.9002 134.977 56.0175 134.596 56.2522C134.214 56.4722 133.914 56.7948 133.694 57.2202C133.474 57.6455 133.364 58.1515 133.364 58.7382V65.7562H130.9V58.7382C130.9 58.1368 130.79 57.6308 130.57 57.2202C130.364 56.7948 130.071 56.4722 129.69 56.2522C129.323 56.0175 128.883 55.9002 128.37 55.9002C127.871 55.9002 127.431 56.0175 127.05 56.2522C126.668 56.4722 126.368 56.7948 126.148 57.2202C125.942 57.6455 125.84 58.1515 125.84 58.7382V65.7562H123.354ZM143.57 70.1562V53.8542H145.946V56.3182L145.66 55.7462C146.1 55.0715 146.687 54.5435 147.42 54.1622C148.154 53.7808 148.99 53.5902 149.928 53.5902C151.058 53.5902 152.07 53.8615 152.964 54.4042C153.874 54.9468 154.585 55.6875 155.098 56.6262C155.626 57.5648 155.89 58.6208 155.89 59.7942C155.89 60.9675 155.626 62.0235 155.098 62.9622C154.585 63.9008 153.881 64.6488 152.986 65.2062C152.092 65.7488 151.072 66.0202 149.928 66.0202C149.004 66.0202 148.161 65.8295 147.398 65.4482C146.65 65.0668 146.071 64.5168 145.66 63.7982L146.056 63.3362V70.1562H143.57ZM149.686 63.7102C150.39 63.7102 151.014 63.5415 151.556 63.2042C152.099 62.8668 152.524 62.4048 152.832 61.8182C153.155 61.2168 153.316 60.5422 153.316 59.7942C153.316 59.0462 153.155 58.3788 152.832 57.7922C152.524 57.2055 152.099 56.7435 151.556 56.4062C151.014 56.0688 150.39 55.9002 149.686 55.9002C148.997 55.9002 148.374 56.0688 147.816 56.4062C147.274 56.7435 146.841 57.2055 146.518 57.7922C146.21 58.3788 146.056 59.0462 146.056 59.7942C146.056 60.5422 146.21 61.2168 146.518 61.8182C146.841 62.4048 147.274 62.8668 147.816 63.2042C148.374 63.5415 148.997 63.7102 149.686 63.7102ZM158.309 65.7562V49.1022H160.795V65.7562H158.309ZM163.701 65.7562V53.8542H166.187V65.7562H163.701ZM163.701 52.2262V49.3662H166.187V52.2262H163.701ZM172.658 66.0202C171.851 66.0202 171.14 65.8808 170.524 65.6022C169.923 65.3088 169.453 64.9128 169.116 64.4142C168.779 63.9008 168.61 63.2995 168.61 62.6102C168.61 61.9648 168.749 61.3855 169.028 60.8722C169.321 60.3588 169.769 59.9262 170.37 59.5742C170.971 59.2222 171.727 58.9728 172.636 58.8262L176.772 58.1442V60.1022L173.12 60.7402C172.46 60.8575 171.976 61.0702 171.668 61.3782C171.36 61.6715 171.206 62.0528 171.206 62.5222C171.206 62.9768 171.375 63.3508 171.712 63.6442C172.064 63.9228 172.511 64.0622 173.054 64.0622C173.729 64.0622 174.315 63.9155 174.814 63.6222C175.327 63.3288 175.723 62.9402 176.002 62.4562C176.281 61.9575 176.42 61.4075 176.42 60.8062V57.7482C176.42 57.1615 176.2 56.6848 175.76 56.3182C175.335 55.9368 174.763 55.7462 174.044 55.7462C173.384 55.7462 172.805 55.9222 172.306 56.2742C171.822 56.6115 171.463 57.0515 171.228 57.5942L169.16 56.5602C169.38 55.9735 169.739 55.4602 170.238 55.0202C170.737 54.5655 171.316 54.2135 171.976 53.9642C172.651 53.7148 173.362 53.5902 174.11 53.5902C175.049 53.5902 175.877 53.7662 176.596 54.1182C177.329 54.4702 177.894 54.9615 178.29 55.5922C178.701 56.2082 178.906 56.9268 178.906 57.7482V65.7562H176.53V63.6002L177.036 63.6662C176.757 64.1502 176.398 64.5682 175.958 64.9202C175.533 65.2722 175.041 65.5435 174.484 65.7342C173.941 65.9248 173.333 66.0202 172.658 66.0202ZM181.813 65.7562V53.8542H184.189V56.1862L183.903 55.8782C184.196 55.1302 184.665 54.5655 185.311 54.1842C185.956 53.7882 186.704 53.5902 187.555 53.5902C188.435 53.5902 189.212 53.7808 189.887 54.1622C190.561 54.5435 191.089 55.0715 191.471 55.7462C191.852 56.4208 192.043 57.1982 192.043 58.0782V65.7562H189.579V58.7382C189.579 58.1368 189.469 57.6308 189.249 57.2202C189.029 56.7948 188.713 56.4722 188.303 56.2522C187.907 56.0175 187.452 55.9002 186.939 55.9002C186.425 55.9002 185.963 56.0175 185.553 56.2522C185.157 56.4722 184.849 56.7948 184.629 57.2202C184.409 57.6455 184.299 58.1515 184.299 58.7382V65.7562H181.813ZM200.357 66.0202C199.169 66.0202 198.113 65.7488 197.189 65.2062C196.28 64.6488 195.554 63.9008 195.011 62.9622C194.483 62.0235 194.219 60.9602 194.219 59.7722C194.219 58.5988 194.483 57.5428 195.011 56.6042C195.539 55.6655 196.265 54.9322 197.189 54.4042C198.113 53.8615 199.169 53.5902 200.357 53.5902C201.164 53.5902 201.919 53.7368 202.623 54.0302C203.327 54.3088 203.936 54.6975 204.449 55.1962C204.977 55.6948 205.366 56.2742 205.615 56.9342L203.437 57.9462C203.188 57.3302 202.785 56.8388 202.227 56.4722C201.685 56.0908 201.061 55.9002 200.357 55.9002C199.683 55.9002 199.074 56.0688 198.531 56.4062C198.003 56.7288 197.585 57.1908 197.277 57.7922C196.969 58.3788 196.815 59.0462 196.815 59.7942C196.815 60.5422 196.969 61.2168 197.277 61.8182C197.585 62.4048 198.003 62.8668 198.531 63.2042C199.074 63.5415 199.683 63.7102 200.357 63.7102C201.076 63.7102 201.699 63.5268 202.227 63.1602C202.77 62.7788 203.173 62.2728 203.437 61.6422L205.615 62.6762C205.381 63.3068 204.999 63.8788 204.471 64.3922C203.958 64.8908 203.349 65.2868 202.645 65.5802C201.941 65.8735 201.179 66.0202 200.357 66.0202ZM213.633 66.0202C212.445 66.0202 211.389 65.7488 210.465 65.2062C209.556 64.6488 208.844 63.9008 208.331 62.9622C207.818 62.0088 207.561 60.9455 207.561 59.7722C207.561 58.5695 207.818 57.5062 208.331 56.5822C208.859 55.6582 209.563 54.9322 210.443 54.4042C211.323 53.8615 212.32 53.5902 213.435 53.5902C214.33 53.5902 215.129 53.7442 215.833 54.0522C216.537 54.3602 217.131 54.7855 217.615 55.3282C218.099 55.8562 218.466 56.4648 218.715 57.1542C218.979 57.8435 219.111 58.5768 219.111 59.3542C219.111 59.5448 219.104 59.7428 219.089 59.9482C219.074 60.1535 219.045 60.3442 219.001 60.5202H209.519V58.5402H217.593L216.405 59.4422C216.552 58.7235 216.5 58.0855 216.251 57.5282C216.016 56.9562 215.65 56.5088 215.151 56.1862C214.667 55.8488 214.095 55.6802 213.435 55.6802C212.775 55.6802 212.188 55.8488 211.675 56.1862C211.162 56.5088 210.766 56.9782 210.487 57.5942C210.208 58.1955 210.098 58.9288 210.157 59.7942C210.084 60.6008 210.194 61.3048 210.487 61.9062C210.795 62.5075 211.22 62.9768 211.763 63.3142C212.32 63.6515 212.951 63.8202 213.655 63.8202C214.374 63.8202 214.982 63.6588 215.481 63.3362C215.994 63.0135 216.398 62.5955 216.691 62.0822L218.715 63.0722C218.48 63.6295 218.114 64.1355 217.615 64.5902C217.131 65.0302 216.544 65.3822 215.855 65.6462C215.18 65.8955 214.44 66.0202 213.633 66.0202Z" fill="#F74F4F"/>
<path d="M174.233 11.5661C171.511 11.5754 168.902 12.6392 166.97 14.5274C166.697 14.7981 166.544 15.1642 166.544 15.5458C166.544 15.9275 166.697 16.2936 166.97 16.5642C167.245 16.8333 167.617 16.9843 168.005 16.9843C168.392 16.9843 168.764 16.8333 169.039 16.5642C169.721 15.8916 170.53 15.358 171.421 14.9939C172.313 14.6297 173.268 14.4423 174.233 14.4423C175.198 14.4423 176.154 14.6297 177.045 14.9939C177.936 15.358 178.746 15.8916 179.427 16.5642C179.698 16.8364 180.067 16.9922 180.454 16.9976C180.752 17.0145 181.048 16.9417 181.302 16.7888C181.557 16.636 181.758 16.4104 181.879 16.1421C182 15.8739 182.036 15.5756 181.98 15.2872C181.925 14.9987 181.781 14.7337 181.569 14.5274C180.604 13.5837 179.459 12.8365 178.2 12.3284C176.942 11.8203 175.594 11.5613 174.233 11.5661ZM174.233 5.78798C169.955 5.79917 165.853 7.47046 162.818 10.4394C162.681 10.5741 162.573 10.734 162.499 10.91C162.425 11.0859 162.387 11.2745 162.387 11.465C162.387 11.8497 162.542 12.2186 162.818 12.4906C163.094 12.7627 163.469 12.9155 163.86 12.9155C164.251 12.9155 164.625 12.7627 164.902 12.4906C167.378 10.056 170.734 8.6885 174.233 8.6885C177.732 8.6885 181.089 10.056 183.565 12.4906C183.702 12.6245 183.864 12.7304 184.043 12.8023C184.222 12.8742 184.413 12.9107 184.606 12.9096C184.799 12.9107 184.991 12.8742 185.17 12.8023C185.348 12.7304 185.511 12.6245 185.648 12.4906C185.786 12.3564 185.895 12.1966 185.969 12.0206C186.044 11.8445 186.082 11.6557 186.082 11.465C186.082 11.2743 186.044 11.0855 185.969 10.9095C185.895 10.7335 185.786 10.5737 185.648 10.4394C182.613 7.47046 178.512 5.79917 174.233 5.78798ZM189.8 6.35135C187.757 4.33781 185.33 2.74051 182.659 1.65071C179.988 0.560922 177.124 0 174.233 0C171.342 0 168.479 0.560922 165.808 1.65071C163.137 2.74051 160.71 4.33781 158.666 6.35135C158.39 6.62336 158.234 6.99229 158.234 7.37698C158.234 7.76166 158.39 8.13059 158.666 8.4026C158.942 8.67461 159.317 8.82743 159.708 8.82743C160.098 8.82743 160.473 8.67461 160.749 8.4026C164.326 4.88296 169.176 2.9058 174.233 2.9058C179.29 2.9058 184.14 4.88296 187.717 8.4026C187.853 8.53799 188.016 8.64546 188.194 8.7188C188.373 8.79213 188.565 8.82989 188.759 8.82989C188.952 8.82989 189.144 8.79213 189.323 8.7188C189.502 8.64546 189.664 8.53799 189.8 8.4026C189.938 8.26831 190.047 8.10854 190.122 7.93251C190.196 7.75648 190.234 7.56767 190.234 7.37698C190.234 7.18628 190.196 6.99747 190.122 6.82144C190.047 6.64541 189.938 6.48564 189.8 6.35135Z" fill="#31B1D6"/>
</svg>
