<?xml version="1.0" encoding="UTF-8"?>
<svg id="Layer_1" data-name="Layer 1" xmlns="http://www.w3.org/2000/svg" viewBox="0 0 50 50">
  <defs>
    <style>
      .cls-1 {
        fill: #fff;
      }
    </style>
  </defs>
  <g id="Capa_1" data-name="Capa 1">
    <path class="cls-1" d="M37.81,22.62l-5.47,5.09,2.31-.15-2.29,5.63c-.38.94-1.03,1.74-1.88,2.31-.24.16-.58.31-.96.42-1.35.42-2.73-.56-2.78-1.97l-.66-18.17h1.16v.37h.74v-1.87h-.74v.32h-1.2l-.08-2.15h3.13v.37h.74v-1.87h-.74v.32h-1.47c.51-.61.8-1.4.77-2.27-.08-1.69-1.43-3.06-3.12-3.14-1.9-.1-3.48,1.42-3.48,3.3,0,.8.29,1.54.77,2.11h-1.47v-.32h-.74v1.87h.74v-.37h3.13l-.08,2.15h-1.2v-.32h-.74v1.87h.74v-.37h1.16l-.66,18.17c-.04,1.41-1.43,2.4-2.78,1.97-.38-.12-.72-.26-.96-.42-.84-.57-1.49-1.37-1.88-2.31l-2.29-5.63,2.31.15-5.47-5.09-.4,7.46,1.67-1.85,2.32,5.7c.53,1.31,1.44,3.42,2.61,4.21.77.52,1.62.87,2.51,1.06,1.07.22,2.05.74,2.82,1.51l1.18,1.18,1.18-1.18c.77-.77,1.75-1.29,2.82-1.51.89-.19,1.74-.54,2.51-1.06,1.18-.79,2.08-2.9,2.61-4.21l2.32-5.7,1.67,1.85-.4-7.46h0ZM22.98,9.15c0-1.17.95-2.12,2.12-2.12s2.12.95,2.12,2.12-.89,2.05-2,2.11h-.24c-1.11-.06-2-.99-2-2.11h0Z"/>
  </g>
</svg>