<svg xmlns="http://www.w3.org/2000/svg" width="12.914" height="17.371" viewBox="0 0 12.914 17.371">
  <g id="f_map" transform="translate(-5.626 -1.237)">
    <path id="Path_973258" data-name="Path 973258" d="M15.73,8.971a2.376,2.376,0,1,0,2.376,2.376A2.376,2.376,0,0,0,15.73,8.971Zm0,3.564a1.188,1.188,0,1,1,1.188-1.188,1.188,1.188,0,0,1-1.188,1.188Z" transform="translate(-3.648 -3.651)" fill="#f47500"/>
    <path id="Path_973259" data-name="Path 973259" d="M16.648,3.127a6.457,6.457,0,0,0-9.976,8.09l4.489,6.891a1.1,1.1,0,0,0,1.843,0l4.489-6.891A6.457,6.457,0,0,0,16.648,3.127ZM16.5,10.569l-4.415,6.777L7.668,10.569a5.269,5.269,0,1,1,8.83,0Z" fill="#f47500"/>
  </g>
</svg>
