<svg id="h_icon_white3" xmlns="http://www.w3.org/2000/svg" xmlns:xlink="http://www.w3.org/1999/xlink" width="58.882" height="41.218" viewBox="0 0 58.882 41.218">
  <defs>
    <clipPath id="clip-path">
      <rect id="Rectangle_101500" data-name="Rectangle 101500" width="58.882" height="41.217" fill="none"/>
    </clipPath>
  </defs>
  <g id="Group_31000" data-name="Group 31000" clip-path="url(#clip-path)">
    <path id="Subtraction_1" data-name="Subtraction 1" d="M29.44,41.215c-.185,0-18.455-.013-23-1.223a7.4,7.4,0,0,1-5.208-5.205C.015,30.25,0,20.709,0,20.614S.015,10.965,1.236,6.441A7.384,7.384,0,0,1,6.444,1.233C10.985.013,29.255,0,29.44,0S47.915.013,52.446,1.233a7.387,7.387,0,0,1,5.211,5.208c1.215,4.523,1.231,14.075,1.231,14.172s-.015,9.636-1.231,14.172a7.41,7.41,0,0,1-5.211,5.205C47.915,41.2,29.625,41.215,29.44,41.215Zm-5.885-29.44V29.437l15.3-8.824-15.3-8.836Z" transform="translate(-0.004)" fill="#fff" stroke="rgba(0,0,0,0)" stroke-miterlimit="10" stroke-width="1"/>
  </g>
</svg>
