<svg xmlns="http://www.w3.org/2000/svg" xmlns:xlink="http://www.w3.org/1999/xlink" width="13.461" height="13.453" viewBox="0 0 13.461 13.453">
  <defs>
    <clipPath id="clip-path">
      <rect id="Rectangle_105542" data-name="Rectangle 105542" width="13.461" height="13.453" fill="none"/>
    </clipPath>
  </defs>
  <g id="h_icon5" transform="translate(0 -1)">
    <g id="Group_39960" data-name="Group 39960" transform="translate(0 1)" clip-path="url(#clip-path)">
      <path id="Path_973236" data-name="Path 973236" d="M5.668,8.541l.614-.371q3.171-1.921,6.342-3.841a.22.22,0,0,0,.13-.233c-.011-.132,0-.266,0-.4a.356.356,0,1,1,.707,0q0,2.176,0,4.353c0,.531.042.5-.451.8Q9.27,11.114,5.535,13.385a.4.4,0,0,1-.378.038L.3,11.567a.379.379,0,0,1-.3-.43Q0,8.119,0,5.1a.387.387,0,0,1,.209-.36q3.4-2.056,6.8-4.114c.307-.186.615-.369.92-.558A.412.412,0,0,1,8.318.033q2.435.93,4.871,1.856a.366.366,0,0,1,.268.319.388.388,0,0,1-.235.376L7.851,5.838c-.689.417-1.377.837-2.068,1.251a.209.209,0,0,0-.116.21c.005.4,0,.806,0,1.241m7.083-1.567c-.062.034-.1.053-.138.076L8.871,9.318q-1.544.935-3.087,1.873c-.045.028-.109.078-.11.119-.008.377-.005.754-.005,1.152.06-.032.1-.053.143-.077l4.4-2.666q1.216-.737,2.431-1.477c.047-.029.1-.089.105-.135.009-.368.005-.737.005-1.132M5.668,10.425c.066-.038.108-.061.149-.086l3.44-2.084q1.688-1.024,3.375-2.049c.046-.028.111-.077.113-.117.009-.327.005-.654.005-1-.066.037-.113.061-.157.088L8.209,7.83q-1.216.737-2.431,1.476a.217.217,0,0,0-.1.136c-.009.319-.005.638-.005.983M5.6,4.557a1.679,1.679,0,0,1-.229,0c-.306-.047-.609-.109-.916-.148a1.631,1.631,0,0,0-1.123.2.348.348,0,0,0-.13.464.333.333,0,0,0,.439.161,1.462,1.462,0,0,1,1-.079,6.968,6.968,0,0,0,.83.119.732.732,0,0,0,.763-.989,3.792,3.792,0,0,0-.168-.407c-.014-.033-.029-.065-.052-.116.262.052.5.1.742.147a3.668,3.668,0,0,0,1.2.078.7.7,0,0,0,.606-1.046c-.083-.2-.192-.387-.286-.581-.033-.068-.059-.14-.091-.219a.581.581,0,0,1,.108-.02c.313.016.626.028.939.054a.364.364,0,0,0,.422-.295.343.343,0,0,0-.311-.405A5.645,5.645,0,0,0,8.615,1.4a2.5,2.5,0,0,0-.683.082.611.611,0,0,0-.434.774,3.59,3.59,0,0,0,.23.57c.065.145.143.285.225.448a1.178,1.178,0,0,1-.23.026c-.3-.03-.6-.055-.891-.1-.353-.058-.7-.147-1.055-.206a.558.558,0,0,0-.584.195.528.528,0,0,0,.012.6c.089.175.195.341.287.514.04.075.066.158.107.26M.716,5.588V7.039L4.96,8.654c0-.458,0-.89,0-1.322a.157.157,0,0,0-.126-.177Q3.178,6.529,1.522,5.895L.716,5.588M.71,9.684c0,.4,0,.776,0,1.153a.156.156,0,0,0,.125.176Q2.518,11.651,4.2,12.3c.246.094.493.186.758.286,0-.4,0-.775,0-1.152a.158.158,0,0,0-.126-.177Q3.219,10.642,1.6,10.024L.71,9.684m4.25.859c0-.346-.006-.666,0-.985a.175.175,0,0,0-.138-.2Q3.02,8.677,1.217,7.988L.71,7.8c0,.345.005.669,0,.993a.166.166,0,0,0,.131.188c.942.355,1.881.715,2.822,1.074l1.3.493" transform="translate(0 0)" fill="#f90"/>
    </g>
  </g>
</svg>
