<svg xmlns="http://www.w3.org/2000/svg" width="13.521" height="10.55" viewBox="0 0 13.521 10.55">
  <path id="h_icon2" d="M0,10.288V12.4c0,1.165,3.026,2.108,6.761,2.108V12.4C3.026,12.4,0,11.452,0,10.29ZM12.047,11.6,6.761,10.288V12.4l5.286,1.314c.922-.361,1.474-.816,1.474-1.314V10.288C13.521,10.785,12.969,11.24,12.047,11.6ZM6.761,8.18v2.108C3.026,10.288,0,9.343,0,8.18V6.065C0,4.9,3.026,3.957,6.761,3.957s6.761.946,6.761,2.111V8.18c0,.5-.552.95-1.474,1.314L6.761,8.177Z" transform="translate(0 -3.957)" fill="#f90"/>
</svg>
