<svg xmlns="http://www.w3.org/2000/svg" xmlns:xlink="http://www.w3.org/1999/xlink" width="13.465" height="13.463" viewBox="0 0 13.465 13.463">
  <defs>
    <clipPath id="clip-path">
      <rect id="Rectangle_105564" data-name="Rectangle 105564" width="13.465" height="13.463" fill="none"/>
    </clipPath>
  </defs>
  <g id="h_icon1" transform="translate(0.004 -0.001)">
    <g id="Group_40000" data-name="Group 40000" transform="translate(-0.004 0.001)">
      <g id="Group_39999" data-name="Group 39999" clip-path="url(#clip-path)">
        <path id="Path_973275" data-name="Path 973275" d="M6.107,11.3c0,.528,0,1.055,0,1.583a1.407,1.407,0,0,1-1.458,1.461q-1.591,0-3.181,0A1.408,1.408,0,0,1,.006,12.881q0-1.59,0-3.181A1.407,1.407,0,0,1,1.464,8.24q1.591,0,3.181,0A1.407,1.407,0,0,1,6.107,9.7c0,.533,0,1.065,0,1.6" transform="translate(-0.005 -7.917)" fill="#f90"/>
        <path id="Path_973276" data-name="Path 973276" d="M3.066,188.276c.528,0,1.056,0,1.583,0A1.406,1.406,0,0,1,6.1,189.729q0,1.6,0,3.2a1.405,1.405,0,0,1-1.452,1.452q-1.6,0-3.2,0A1.406,1.406,0,0,1,0,192.924q0-1.6,0-3.2a1.407,1.407,0,0,1,1.452-1.452c.538,0,1.075,0,1.613,0" transform="translate(0 -180.914)" fill="#f90"/>
        <path id="Path_973277" data-name="Path 973277" d="M183.113,188.276c.533,0,1.065,0,1.6,0a1.406,1.406,0,0,1,1.452,1.452q0,1.6,0,3.2a1.405,1.405,0,0,1-1.452,1.452q-1.6,0-3.2,0a1.406,1.406,0,0,1-1.452-1.452q0-1.6,0-3.2a1.407,1.407,0,0,1,1.452-1.452c.533,0,1.065,0,1.6,0" transform="translate(-173.022 -180.914)" fill="#f90"/>
        <path id="Path_973278" data-name="Path 973278" d="M171.982,3.368a1.338,1.338,0,0,1,.366-.933c.682-.693,1.364-1.387,2.064-2.061a1.366,1.366,0,0,1,1.888.01q1.032,1,2.032,2.031a1.369,1.369,0,0,1,0,1.911q-1,1.033-2.032,2.032a1.366,1.366,0,0,1-1.9.007c-.7-.671-1.375-1.362-2.054-2.051a1.346,1.346,0,0,1-.369-.946" transform="translate(-165.258 0)" fill="#f90"/>
      </g>
    </g>
  </g>
</svg>
