<svg xmlns="http://www.w3.org/2000/svg" width="12.501" height="13.463" viewBox="0 0 12.501 13.463">
  <g id="h_icon3" transform="translate(-3.375 -2.25)">
    <path id="Path_973233" data-name="Path 973233" d="M17.081,6.365a1.022,1.022,0,0,0-2.043,0V7.387h1.022A1.022,1.022,0,0,0,17.081,6.365Zm-3.366,0a1.022,1.022,0,1,0-1.022,1.022h1.022Z" transform="translate(-4.751 -1.771)" fill="none"/>
    <path id="Path_973234" data-name="Path 973234" d="M8.964,5.616h1.322V8.981h4.928a.661.661,0,0,0,.661-.661V6.277a.661.661,0,0,0-.661-.661h-1.8A2.342,2.342,0,0,0,9.626,2.965,2.344,2.344,0,0,0,5.833,5.616h-1.8a.661.661,0,0,0-.661.661V8.32a.661.661,0,0,0,.661.661H8.964Zm1.322-1.022a1.022,1.022,0,1,1,1.022,1.022H10.287Zm-3.366,0a1.022,1.022,0,1,1,2.043,0V5.616H7.943A1.022,1.022,0,0,1,6.921,4.594Zm3.366,11.119h3.967a.661.661,0,0,0,.661-.661V9.943H10.287Zm-5.95-.661A.661.661,0,0,0,5,15.713H8.964V9.943H4.337Z" transform="translate(0)" fill="#f90"/>
  </g>
</svg>
