<svg id="h_icon6" xmlns="http://www.w3.org/2000/svg" xmlns:xlink="http://www.w3.org/1999/xlink" width="14.05" height="13.463" viewBox="0 0 14.05 13.463">
  <defs>
    <clipPath id="clip-path">
      <rect id="Rectangle_105563" data-name="Rectangle 105563" width="14.05" height="13.463" fill="none"/>
    </clipPath>
  </defs>
  <g id="Group_39997" data-name="Group 39997" clip-path="url(#clip-path)">
    <path id="Path_973266" data-name="Path 973266" d="M0,12.027V1.434A.464.464,0,0,0,.023,1.37,1.629,1.629,0,0,1,1.692,0Q5.314,0,8.937,0a1.63,1.63,0,0,1,1.686,1.687q0,5.043,0,10.085a1.747,1.747,0,0,1-.019.3,1.625,1.625,0,0,1-1.64,1.387c-1.006,0-2.012,0-3.019,0H1.679a1.584,1.584,0,0,1-1.459-.833,3.608,3.608,0,0,1-.219-.6m9.306-5.3q0-2.284,0-4.569A.7.7,0,0,0,8.558,1.4H2.1a.9.9,0,0,0-.2.018.7.7,0,0,0-.547.739c0,3.032,0,6.064-.005,9.1a.766.766,0,0,0,.811.8q3.176-.021,6.352,0a.762.762,0,0,0,.809-.8C9.3,9.749,9.306,8.24,9.306,6.73" transform="translate(0 0.001)" fill="#f90"/>
    <path id="Path_973267" data-name="Path 973267" d="M353.878,44.494c-.007.068-.018.135-.019.2q-.075,4.28-.149,8.56a3.072,3.072,0,0,1-.02.383.7.7,0,0,1-.672.594.244.244,0,0,1-.282-.26c0-.036,0-.073,0-.11q0-5.255,0-10.51c0-.041,0-.083,0-.123a.238.238,0,0,1,.248-.24.776.776,0,0,1,.894.571Z" transform="translate(-339.827 -41.413)" fill="#f90"/>
    <path id="Path_973268" data-name="Path 973268" d="M310.644,48.645c0,1.756,0,3.513,0,5.269,0,.317-.176.379-.407.317a.715.715,0,0,1-.534-.7q-.03-1.605-.057-3.21c-.038-2.168-.068-4.335-.118-6.5a.746.746,0,0,1,.814-.812c.219.012.3.08.3.3q0,1.276,0,2.552v2.785" transform="translate(-298.206 -41.434)" fill="#f90"/>
    <path id="Path_973269" data-name="Path 973269" d="M56.582,57.589h-6.71c-.283,0-.315-.032-.315-.314q0-2.873,0-5.747c0-.285.064-.35.343-.35h6.35c.266,0,.332.066.332.33q0,2.962,0,5.925Zm-4.947-3.081a1.5,1.5,0,0,0,.962,1.2,1.705,1.705,0,0,0,.352.033c.068,0,.137-.008.2,0A1.432,1.432,0,0,0,54.5,54.67a2.091,2.091,0,0,0,.005-.259c0-.068-.005-.137,0-.2a.911.911,0,0,0-.355-.845.828.828,0,0,1-.125-.124.909.909,0,0,0-.8-.362,1.039,1.039,0,0,1-.191.008.883.883,0,0,0-.826.266c-.2.221-.479.38-.538.706a1.841,1.841,0,0,0-.03.257c0,.132,0,.264,0,.4m3.758.029c0,.041-.008.082-.007.123a.235.235,0,0,0,.22.25.227.227,0,0,0,.241-.212,2.014,2.014,0,0,0,.016-.328.228.228,0,0,0-.225-.216.233.233,0,0,0-.236.2c-.008.059-.006.119-.009.178M52.32,52.219a.242.242,0,0,0,.282-.2.226.226,0,0,0-.185-.262,2.213,2.213,0,0,0-.327-.028.232.232,0,0,0-.029.463c.086.012.173.017.259.025M55.1,51.98c-.17-.009-.28.061-.3.191a.223.223,0,0,0,.166.263,1.852,1.852,0,0,0,.368.028.221.221,0,0,0,.215-.224A.225.225,0,0,0,55.33,52c-.077-.009-.155-.014-.232-.02M51.16,56.173v-.006c-.046,0-.091,0-.137,0a.231.231,0,0,0-.029.461,1.765,1.765,0,0,0,.341.006.231.231,0,0,0-.012-.46c-.054,0-.109,0-.164,0m3.512.257a.238.238,0,0,0-.26.2.223.223,0,0,0,.189.258,2.484,2.484,0,0,0,.312.043.229.229,0,0,0,.243-.194.222.222,0,0,0-.181-.263c-.1-.022-.207-.031-.3-.045m-3.929-2.986a3.055,3.055,0,0,0-.158-.375A.2.2,0,0,0,50.317,53a.207.207,0,0,0-.133.255,1.806,1.806,0,0,0,.125.346.208.208,0,0,0,.257.105c.111-.028.165-.106.178-.262" transform="translate(-47.744 -49.306)" fill="#f90"/>
    <path id="Path_973270" data-name="Path 973270" d="M153.7,239.214h1.372c.215,0,.26.044.26.254q0,1.139,0,2.278c0,.228-.076.3-.3.3H152.31c-.21,0-.254-.045-.254-.26q0-1.159,0-2.319c0-.217.04-.257.257-.257H153.7m0,2.455a1.053,1.053,0,1,0-1.058-1.051,1.055,1.055,0,0,0,1.058,1.051" transform="translate(-146.492 -230.461)" fill="#f90"/>
    <path id="Path_973271" data-name="Path 973271" d="M51.2,283.9h1.37c.2,0,.251.055.252.254q0,.349,0,.7c0,.193-.055.248-.242.248H49.839c-.217,0-.3-.081-.3-.3s0-.448,0-.672c0-.169.062-.23.233-.231.475,0,.95,0,1.425,0" transform="translate(-47.727 -273.513)" fill="#f90"/>
    <path id="Path_973272" data-name="Path 973272" d="M51.17,240.38H49.785c-.192,0-.245-.053-.245-.243,0-.233,0-.466,0-.7,0-.164.059-.223.223-.223q1.419,0,2.839,0c.159,0,.216.057.218.215,0,.238,0,.475,0,.713,0,.184-.055.237-.238.237H51.17" transform="translate(-47.726 -230.461)" fill="#f90"/>
    <path id="Path_973273" data-name="Path 973273" d="M119.924,110.372c.139-.006.278-.014.417-.018a.447.447,0,0,1,.383.2.759.759,0,0,0,.16.163.469.469,0,0,1,.2.487.824.824,0,0,0,0,.228.469.469,0,0,1-.215.5.635.635,0,0,0-.149.155.462.462,0,0,1-.437.2,2.008,2.008,0,0,0-.309,0,.467.467,0,0,1-.448-.206.749.749,0,0,0-.162-.161.47.47,0,0,1-.2-.49.621.621,0,0,0,0-.2.469.469,0,0,1,.207-.51.7.7,0,0,0,.15-.154.4.4,0,0,1,.394-.19" transform="translate(-114.802 -106.316)" fill="#f90"/>
    <path id="Path_973274" data-name="Path 973274" d="M180.792,262.172a.586.586,0,1,1,.588.582.587.587,0,0,1-.588-.582" transform="translate(-174.177 -252.014)" fill="#f90"/>
  </g>
</svg>
