<svg xmlns="http://www.w3.org/2000/svg" xmlns:xlink="http://www.w3.org/1999/xlink" width="23.361" height="23.363" viewBox="0 0 23.361 23.363">
  <defs>
    <clipPath id="clip-path">
      <path id="Path_2856" data-name="Path 2856" d="M9.33,13.187a3.894,3.894,0,1,1,3.9,3.886h-.007A3.894,3.894,0,0,1,9.33,13.187m3.882-6.005h0A6,6,0,0,0,7.226,13.19h0a6,6,0,1,0,6-6.01h-.011m6.231-1.647h0a1.4,1.4,0,1,0,1.4,1.4,1.4,1.4,0,0,0-1.4-1.4h0M6.354,22.3a3.865,3.865,0,0,1-2.221-2.213,6.475,6.475,0,0,1-.405-2.165c-.058-1.231-.069-1.6-.077-4.72s.005-3.488.058-4.72a6.479,6.479,0,0,1,.4-2.173,3.632,3.632,0,0,1,.874-1.345A3.614,3.614,0,0,1,6.319,4.09a6.452,6.452,0,0,1,2.164-.406c1.232-.058,1.6-.069,4.718-.077s3.489,0,4.721.059a6.448,6.448,0,0,1,2.168.4,3.87,3.87,0,0,1,2.226,2.213,6.432,6.432,0,0,1,.4,2.167c.059,1.232.069,1.6.078,4.72s-.006,3.489-.06,4.72a6.463,6.463,0,0,1-.4,2.17,3.866,3.866,0,0,1-2.213,2.221,6.471,6.471,0,0,1-2.167.406c-1.232.058-1.6.069-4.72.077s-3.487-.005-4.719-.059h0a6.466,6.466,0,0,1-2.168-.4M13.2,1.5c-3.172.008-3.57.02-4.815.08h0a8.543,8.543,0,0,0-2.834.55A5.955,5.955,0,0,0,2.144,5.555a8.586,8.586,0,0,0-.537,2.836c-.054,1.246-.069,1.644-.061,4.815s.02,3.573.08,4.816a8.57,8.57,0,0,0,.55,2.833,5.716,5.716,0,0,0,1.351,2.066A5.727,5.727,0,0,0,5.6,24.263a8.582,8.582,0,0,0,2.836.537c1.246.055,1.644.069,4.815.061s3.572-.02,4.816-.079a8.6,8.6,0,0,0,2.834-.55A5.969,5.969,0,0,0,24.3,20.809a8.558,8.558,0,0,0,.537-2.835c.054-1.246.069-1.645.061-4.817s-.02-3.57-.08-4.815a8.54,8.54,0,0,0-.55-2.834,5.725,5.725,0,0,0-1.351-2.066A5.706,5.706,0,0,0,20.85,2.1a8.54,8.54,0,0,0-2.835-.537c-1.042-.046-1.491-.063-3.466-.063l-1.35,0" transform="translate(-1.543 -1.5)" fill="#222"/>
    </clipPath>
  </defs>
  <g id="h_instagram" transform="translate(-0.282 -1.025)">
    <g id="Group_753" data-name="Group 753" transform="translate(0.282 1.025)">
      <g id="Group_752" data-name="Group 752" clip-path="url(#clip-path)">
        <rect id="Rectangle_1544" data-name="Rectangle 1544" width="26.107" height="24.972" transform="translate(-1.223 -0.97)" fill="#222"/>
        <rect id="Rectangle_1545" data-name="Rectangle 1545" width="26.107" height="24.972" transform="translate(-1.223 -0.97)" fill="#47210d"/>
      </g>
    </g>
  </g>
</svg>
