<svg xmlns="http://www.w3.org/2000/svg" width="20.24" height="18.064" viewBox="0 0 20.24 18.064">
  <g id="h_shop" transform="translate(-2.25 -4.5)">
    <path id="Path_973231" data-name="Path 973231" d="M11.63,27a1.505,1.505,0,1,1-1.505,1.505A1.507,1.507,0,0,1,11.63,27Z" transform="translate(-2.606 -7.446)" fill="#fff"/>
    <path id="Path_973232" data-name="Path 973232" d="M27.38,27a1.505,1.505,0,1,1-1.505,1.505A1.507,1.507,0,0,1,27.38,27Z" transform="translate(-7.819 -7.446)" fill="#fff"/>
    <path id="Path_973233" data-name="Path 973233" d="M20.314,18.8H8.271a.753.753,0,0,1-.741-.622L5.382,6.005H3A.753.753,0,1,1,3,4.5H6.013a.753.753,0,0,1,.741.622L8.9,17.3H20.314a.753.753,0,1,1,0,1.505Z" fill="#fff"/>
    <path id="Path_973234" data-name="Path 973234" d="M21.868,16.907H10.133a.753.753,0,0,1,0-1.505H21.559l1.2-6.021H8.628a.753.753,0,1,1,0-1.505H23.222A1.129,1.129,0,0,1,24.33,9.226L22.975,16A1.132,1.132,0,0,1,21.868,16.907Z" transform="translate(-1.862 -1.117)" fill="#fff"/>
  </g>
</svg>
